<svg xmlns:xlink="http://www.w3.org/1999/xlink" xmlns="http://www.w3.org/2000/svg" viewBox="0 0 24 24" width="24" height="24" color="#4B0AFF"><path d="M21.192 9.33c-1.416-2.116-4.357-3.008-6.874-1.715a5.948 5.948 0 0 0-1.249.864l-.006.005-.694.663 2.592 2.477.096-.091.06.054-.059-.055.668-.638a1.612 1.612 0 0 1 1.906-.167c.541.333.817.939.686 1.547-.119.554-.46.944-1.02 1.128-.631.206-1.189.054-1.658-.395-1.57-1.501-3.132-3.01-4.709-4.505a5.389 5.389 0 0 0-6.084-.963C3.22 8.316 1.643 10.28 2.07 12.8c.383 2.273 2.601 4.156 5.007 4.177 1.428.012 2.601-.489 3.617-1.314a6.892 6.892 0 0 0 .529-.469l.406-.388-1.018-.973-.744-.71c-.082-.08-.154-.15-.22-.212l-.046-.043-.536-.512-.507.485c-.084.065-.177.143-.284.23-.06.047-.12.093-.185.136a1.6 1.6 0 0 1-2.098-.295c-.516-.613-.455-1.478.146-2.023.651-.593 1.57-.55 2.29.132 1.56 1.482 3.104 2.98 4.665 4.463 1.01.96 2.24 1.45 3.657 1.506.666.058 1.28-.141 1.883-.354 3.075-1.081 4.324-4.67 2.56-7.307v.002Z" fill="#4B0AFF"></path></svg>