<svg xmlns:xlink="http://www.w3.org/1999/xlink" xmlns="http://www.w3.org/2000/svg" fill="none" viewBox="0 0 24 24" width="56" height="56" color="var(--simentic-on-surface, #121416)"><path d="M6.9 3H12v9H3V6.9A3.9 3.9 0 0 1 6.9 3Z" fill="#A0A9B9"></path><path d="M9.642 6.956v1.1H8.044v1.598H6.956V8.055h-1.61v-1.1h1.61V5.347h1.088v1.61h1.598Z" fill="#FFFFFF"></path><path d="M3 11.989h9v9H6.9a3.9 3.9 0 0 1-3.9-3.9v-5.1Z" fill="#A0A9B9"></path><path d="m9.404 17.622-.782.782-1.133-1.133-1.134 1.133-.77-.77L6.717 16.5l-1.134-1.133.783-.783L7.5 15.718l1.133-1.134.771.771-1.133 1.134 1.133 1.133Z" fill="#FFFFFF"></path><path d="M12 12h9v5.1a3.9 3.9 0 0 1-3.9 3.9H12v-9Z" fill="#0067FF"></path><path d="M14.505 15.015h3.99v1.02h-3.99v-1.02Zm0 1.927h3.99v1.02h-3.99v-1.02Z" fill="#FFFFFF"></path><path d="M12 3h5.1a3.897 3.897 0 0 1 3.889 3.9V12h-9V3H12Z" fill="#A0A9B9"></path><path d="M14.505 6.99v1.02h3.99V6.99h-3.99Z" fill="#FFFFFF"></path></svg>