<svg xmlns:xlink="http://www.w3.org/1999/xlink" xmlns="http://www.w3.org/2000/svg" viewBox="0 0 24 24" width="56" height="56" color="var(--simentic-on-surface, #121416)"><path d="M12.001 22c4.618 0 8.36-3.82 8.36-8.53 0-4.712-3.742-8.532-8.36-8.532-4.618 0-8.36 3.82-8.36 8.531C3.64 18.181 7.382 22 12 22Z" fill="#EF4452"></path><path d="M12.001 19.762c3.406 0 6.168-2.817 6.168-6.293S15.407 7.176 12 7.176s-6.168 2.817-6.168 6.293S8.594 19.762 12 19.762Z" fill="#FFFFFF"></path><path d="M4.261 7.744c-.622.437-1.478.095-1.652-.656-.375-1.611.227-3.362 1.644-4.358a3.986 3.986 0 0 1 4.576-.015c.627.433.635 1.37.013 1.808L4.26 7.743Zm15.479 0c.622.437 1.477.095 1.651-.656.374-1.611-.227-3.362-1.643-4.358a3.986 3.986 0 0 0-4.577-.015 1.107 1.107 0 0 0-.012 1.808l4.58 3.22Z" fill="#FFCD00"></path><path d="M13.038 15.568a.71.71 0 0 0 1.018 0 .745.745 0 0 0 0-1.039l-1.453-1.482a.71.71 0 0 0-1.018 0 .745.745 0 0 0 0 1.038l1.453 1.483Z" fill="#EF4452"></path><path d="M12.72 10.148a.727.727 0 0 0-.719-.735.727.727 0 0 0-.72.735v3.286c0 .406.323.734.72.734.397 0 .72-.328.72-.734v-3.286Z" fill="#212121"></path></svg>