<svg xmlns:xlink="http://www.w3.org/1999/xlink" xmlns="http://www.w3.org/2000/svg" viewBox="0 0 24 25" fill="none" width="24" height="24" color="var(--simentic-on-surface, #121416)"><mask id="mask0_14043_70994" maskUnits="userSpaceOnUse" x="3" y="3" width="18" height="19" style="mask-type: luminance;" fill="none"><path d="M17.0625 3.5H6.9375C4.76288 3.5 3 5.26288 3 7.4375V17.5625C3 19.7371 4.76288 21.5 6.9375 21.5H17.0625C19.2371 21.5 21 19.7371 21 17.5625V7.4375C21 5.26288 19.2371 3.5 17.0625 3.5Z" fill="#FFFFFF"></path></mask><g mask="url(#mask0_14043_70994)" fill="none"><path d="M21 3.5H3V21.5H21V3.5Z" fill="url(&quot;#paint0_linear_14043_70994&quot;)"></path><path fill-rule="evenodd" clip-rule="evenodd" d="M7.94922 11.9298C7.94922 10.9217 7.94922 10.4177 8.14542 10.0326C8.31799 9.69392 8.59334 9.41855 8.93205 9.246C9.31708 9.0498 9.82113 9.0498 10.8292 9.0498H13.1692C14.1773 9.0498 14.6814 9.0498 15.0664 9.246C15.4051 9.41855 15.6805 9.69392 15.853 10.0326C15.8877 10.1006 15.9162 10.1723 15.9397 10.2498H14.6992C14.1411 10.2498 13.862 10.2498 13.6344 10.3166C13.0956 10.4748 12.6742 10.8962 12.516 11.4349C12.4492 11.6626 12.4492 11.9416 12.4492 12.4998C12.4492 13.058 12.4492 13.337 12.516 13.5647C12.6742 14.1034 13.0956 14.5248 13.6344 14.683C13.862 14.7498 14.1411 14.7498 14.6992 14.7498H15.9397C15.9162 14.8273 15.8877 14.899 15.853 14.967C15.6805 15.3057 15.4051 15.581 15.0664 15.7536C14.6814 15.9498 14.1773 15.9498 13.1692 15.9498H10.8292C9.82113 15.9498 9.31708 15.9498 8.93205 15.7536C8.59334 15.581 8.31799 15.3057 8.14542 14.967C7.94922 14.5819 7.94922 14.0779 7.94922 13.0698V11.9298ZM13.0492 12.4998C13.0492 11.94 13.0492 11.6601 13.1532 11.4442C13.2564 11.2299 13.4293 11.057 13.6436 10.9538C13.8595 10.8498 14.1394 10.8498 14.6992 10.8498H15.2992C15.859 10.8498 16.1389 10.8498 16.3548 10.9538C16.5691 11.057 16.742 11.2299 16.8452 11.4442C16.9492 11.6601 16.9492 11.94 16.9492 12.4998C16.9492 13.0596 16.9492 13.3394 16.8452 13.5554C16.742 13.7697 16.5691 13.9426 16.3548 14.0458C16.1389 14.1498 15.859 14.1498 15.2992 14.1498H14.6992C14.1394 14.1498 13.8595 14.1498 13.6436 14.0458C13.4293 13.9426 13.2564 13.7697 13.1532 13.5554C13.0492 13.3394 13.0492 13.0596 13.0492 12.4998ZM14.9992 12.4998C14.9992 12.8312 14.7305 13.0998 14.3992 13.0998C14.0678 13.0998 13.7992 12.8312 13.7992 12.4998C13.7992 12.1684 14.0678 11.8998 14.3992 11.8998C14.7305 11.8998 14.9992 12.1684 14.9992 12.4998Z" fill="#FFFFFF"></path></g><defs><linearGradient id="paint0_linear_14043_70994" x1="12" y1="3.5" x2="12" y2="21.5" gradientUnits="userSpaceOnUse"><stop stop-color="#60BFEF"></stop><stop offset="0.0666667" stop-color="#5FBFEF"></stop><stop offset="0.133333" stop-color="#5DBDF0"></stop><stop offset="0.2" stop-color="#58BBF0"></stop><stop offset="0.266667" stop-color="#52B9F1"></stop><stop offset="0.333333" stop-color="#4AB5F2"></stop><stop offset="0.4" stop-color="#40B1F4"></stop><stop offset="0.466667" stop-color="#36ACF6"></stop><stop offset="0.533333" stop-color="#2AA7F7"></stop><stop offset="0.6" stop-color="#20A2F9"></stop><stop offset="0.666667" stop-color="#169EFB"></stop><stop offset="0.733333" stop-color="#0E9AFC"></stop><stop offset="0.8" stop-color="#0898FD"></stop><stop offset="0.866667" stop-color="#0396FD"></stop><stop offset="0.933333" stop-color="#0194FE"></stop><stop offset="1" stop-color="#0094FE"></stop></linearGradient><linearGradient id="paint0_linear_14043_70994" x1="12" y1="3.5" x2="12" y2="21.5" gradientUnits="userSpaceOnUse"><stop stop-color="#60BFEF"></stop><stop offset="0.0666667" stop-color="#5FBFEF"></stop><stop offset="0.133333" stop-color="#5DBDF0"></stop><stop offset="0.2" stop-color="#58BBF0"></stop><stop offset="0.266667" stop-color="#52B9F1"></stop><stop offset="0.333333" stop-color="#4AB5F2"></stop><stop offset="0.4" stop-color="#40B1F4"></stop><stop offset="0.466667" stop-color="#36ACF6"></stop><stop offset="0.533333" stop-color="#2AA7F7"></stop><stop offset="0.6" stop-color="#20A2F9"></stop><stop offset="0.666667" stop-color="#169EFB"></stop><stop offset="0.733333" stop-color="#0E9AFC"></stop><stop offset="0.8" stop-color="#0898FD"></stop><stop offset="0.866667" stop-color="#0396FD"></stop><stop offset="0.933333" stop-color="#0194FE"></stop><stop offset="1" stop-color="#0094FE"></stop></linearGradient></defs></svg>