<svg xmlns:xlink="http://www.w3.org/1999/xlink" xmlns="http://www.w3.org/2000/svg" viewBox="0 0 24 24" width="24" height="24" color="var(--simentic-on-surface, #121416)"><path d="M10.44 3.911a1.792 1.792 0 0 1 3.12 0l8.196 14.355C22.45 19.48 21.582 21 20.195 21H3.805c-1.387 0-2.255-1.519-1.56-2.734L10.438 3.91Z" fill="#FFCD00"></path><path d="M11.908 8.924c.456 0 .822.38.812.84l-.106 4.766a.71.71 0 0 1-.706.698.71.71 0 0 1-.706-.698l-.106-4.766a.817.817 0 0 1 .812-.84Zm-.896 8.07c-.01-.572.4-1.039.907-1.033.48-.006.896.46.896 1.033 0 .578-.416 1.044-.896 1.044-.507 0-.918-.466-.907-1.044Z" fill="#303D4C"></path></svg>