<svg xmlns:xlink="http://www.w3.org/1999/xlink" xmlns="http://www.w3.org/2000/svg" width="194" height="51" viewBox="0 0 194 51" fill="none">
  <g clip-path="url(#clip0_132_29386)">
    <path d="M29.949 23.8549C29.8895 18.3652 34.4366 15.7242 34.6447 15.6055C32.0888 11.8369 28.1063 11.3325 26.7095 11.2731C23.3512 10.9171 20.1117 13.2613 18.4177 13.2613C16.6643 13.2613 14.0489 11.3028 11.2255 11.3622C7.57002 11.4215 4.18198 13.5284 2.30964 16.7925C-1.55393 23.4691 1.32889 33.2615 5.01413 38.6325C6.85675 41.2734 9.02629 44.2112 11.8497 44.1221C14.6136 44.0034 15.6538 42.3714 18.9824 42.3714C22.2813 42.3714 23.262 44.1221 26.1448 44.0628C29.1168 44.0034 30.9892 41.4218 32.7723 38.7512C34.9122 35.7244 35.774 32.757 35.8037 32.6087C35.7146 32.579 30.0084 30.4128 29.949 23.8549Z" fill="white"/>
    <path d="M24.5099 7.74252C25.9959 5.87306 27.0063 3.35078 26.7389 0.798828C24.599 0.88785 21.8946 2.28252 20.3491 4.09263C18.982 5.69502 17.7635 8.30632 18.0607 10.7693C20.4977 10.977 22.9645 9.5823 24.5099 7.74252Z" fill="white"/>
    <path d="M69.9813 43.7658H66.1177L64.0076 37.1189H56.6371L54.6162 43.7658H50.8418L58.1231 21.1543H62.6108L69.9813 43.7658ZM63.3538 34.3295L61.4517 28.4244C61.2437 27.8309 60.8573 26.4066 60.2927 24.1514H60.2332C59.9955 25.1009 59.6388 26.5253 59.1633 28.4244L57.291 34.3295H63.3538Z" fill="white"/>
    <path d="M88.7041 35.3982C88.7041 38.1578 87.9612 40.3537 86.4454 41.9858C85.1081 43.4101 83.4438 44.1223 81.4525 44.1223C79.3127 44.1223 77.7673 43.3508 76.8163 41.8077H76.7568V50.3835H73.131V32.8165C73.131 31.0658 73.0716 29.2853 72.9824 27.4456H76.1624L76.3705 30.0272H76.4299C77.6484 28.0687 79.4613 27.1191 81.9281 27.1191C83.8598 27.1191 85.4647 27.8907 86.7426 29.404C88.08 30.9174 88.7041 32.9352 88.7041 35.3982ZM85.0189 35.5465C85.0189 33.9738 84.6623 32.6385 83.949 31.6296C83.1763 30.5613 82.1064 30.0272 80.7987 30.0272C79.9071 30.0272 79.1047 30.3239 78.3617 30.9174C77.6484 31.5109 77.1432 32.2824 76.9351 33.2616C76.8163 33.7067 76.7568 34.0925 76.7568 34.3596V37.0896C76.7568 38.2765 77.1135 39.2854 77.8565 40.0866C78.5994 40.9175 79.5208 41.3033 80.7095 41.3033C82.0767 41.3033 83.1466 40.7691 83.8896 39.7305C84.6326 38.6326 85.0189 37.2676 85.0189 35.5465Z" fill="white"/>
    <path d="M107.487 35.3982C107.487 38.1578 106.744 40.3537 105.229 41.9858C103.891 43.4101 102.227 44.1223 100.236 44.1223C98.0959 44.1223 96.5505 43.3508 95.5995 41.8077H95.54V50.3835H91.9142V32.8165C91.9142 31.0658 91.8548 29.2853 91.7656 27.4456H94.9754L95.1834 30.0272H95.2428C96.4613 28.0687 98.2742 27.1191 100.741 27.1191C102.673 27.1191 104.278 27.8907 105.556 29.404C106.863 30.9174 107.487 32.9352 107.487 35.3982ZM103.802 35.5465C103.802 33.9738 103.445 32.6385 102.732 31.6296C101.959 30.5613 100.89 30.0272 99.5819 30.0272C98.6903 30.0272 97.8879 30.3239 97.1449 30.9174C96.4316 31.5109 95.9561 32.2824 95.7183 33.2616C95.5995 33.7067 95.54 34.0925 95.54 34.3596V37.0896C95.54 38.2765 95.8967 39.2854 96.6397 40.0866C97.3529 40.9175 98.304 41.3033 99.4927 41.3033C100.86 41.3033 101.93 40.7691 102.673 39.7305C103.416 38.6326 103.802 37.2676 103.802 35.5465Z" fill="white"/>
    <path d="M128.499 37.4158C128.499 39.3446 127.845 40.8877 126.478 42.1043C124.992 43.41 122.941 44.0925 120.296 44.0925C117.859 44.0925 115.898 43.6177 114.441 42.6681L115.274 39.6414C116.878 40.5909 118.602 41.0954 120.504 41.0954C121.871 41.0954 122.941 40.7987 123.684 40.1755C124.457 39.5524 124.814 38.7215 124.814 37.7126C124.814 36.7927 124.516 36.0212 123.863 35.398C123.238 34.7749 122.198 34.1814 120.742 33.6472C116.789 32.1636 114.798 29.9974 114.798 27.1783C114.798 25.3089 115.482 23.7955 116.878 22.6086C118.275 21.4216 120.118 20.8281 122.406 20.8281C124.457 20.8281 126.181 21.1842 127.548 21.8964L126.656 24.8638C125.378 24.1813 123.952 23.8252 122.317 23.8252C121.039 23.8252 120.029 24.1516 119.315 24.7748C118.721 25.3386 118.424 26.0211 118.424 26.8223C118.424 27.7125 118.78 28.4543 119.464 29.0478C120.058 29.5819 121.158 30.1754 122.763 30.7986C124.695 31.5701 126.151 32.49 127.072 33.5582C128.023 34.5375 128.499 35.8431 128.499 37.4158Z" fill="white"/>
    <path d="M140.476 30.1758H136.464V38.0987C136.464 40.1166 137.177 41.1255 138.574 41.1255C139.228 41.1255 139.763 41.0661 140.179 40.9474L140.268 43.7071C139.555 43.9742 138.604 44.1225 137.445 44.1225C136.018 44.1225 134.889 43.6774 134.086 42.8169C133.284 41.9563 132.868 40.4726 132.868 38.4251V30.1758H130.49V27.4458H132.868V24.4784L136.434 23.4102V27.4755H140.446V30.1758H140.476Z" fill="white"/>
    <path d="M158.517 35.4571C158.517 37.9497 157.803 40.0269 156.377 41.6293C154.861 43.291 152.87 44.1219 150.403 44.1219C147.996 44.1219 146.094 43.3207 144.667 41.748C143.241 40.1753 142.527 38.1575 142.527 35.7539C142.527 33.2316 143.27 31.1544 144.727 29.552C146.183 27.9496 148.174 27.1484 150.641 27.1484C153.048 27.1484 154.95 27.9496 156.406 29.5223C157.833 31.0357 158.517 33.0239 158.517 35.4571ZM154.772 35.5758C154.772 34.0625 154.445 32.7865 153.791 31.7182C153.018 30.4126 151.948 29.7597 150.522 29.7597C149.066 29.7597 147.966 30.4126 147.193 31.7182C146.54 32.7865 146.213 34.0921 146.213 35.6648C146.213 37.1782 146.54 38.4542 147.193 39.5225C147.966 40.8281 149.066 41.4809 150.492 41.4809C151.889 41.4809 152.959 40.8281 153.761 39.4928C154.415 38.3948 154.772 37.0892 154.772 35.5758Z" fill="white"/>
    <path d="M170.314 30.6496C169.958 30.5902 169.571 30.5606 169.155 30.5606C167.877 30.5606 166.896 31.0353 166.183 32.0146C165.589 32.8751 165.292 33.9434 165.292 35.249V43.7951H161.666L161.695 32.6377C161.695 30.7683 161.636 29.0472 161.547 27.5041H164.697L164.846 30.6199H164.935C165.321 29.5516 165.916 28.6911 166.748 28.0383C167.55 27.4448 168.442 27.1777 169.363 27.1777C169.69 27.1777 169.987 27.2074 170.284 27.2371V30.6496H170.314Z" fill="white"/>
    <path d="M186.543 34.8351C186.543 35.4879 186.513 36.0221 186.424 36.4672H175.517C175.546 38.0696 176.081 39.3159 177.092 40.1467C178.013 40.9183 179.202 41.2743 180.658 41.2743C182.263 41.2743 183.749 41.0073 185.057 40.5028L185.621 43.0251C184.076 43.7076 182.263 44.034 180.153 44.034C177.627 44.034 175.636 43.2922 174.179 41.8085C172.723 40.3248 172.01 38.3366 172.01 35.8143C172.01 33.3514 172.693 31.3039 174.031 29.6719C175.428 27.9211 177.359 27.0605 179.737 27.0605C182.085 27.0605 183.868 27.9211 185.086 29.6719C186.067 31.0962 186.543 32.7876 186.543 34.8351ZM183.066 33.8855C183.095 32.8173 182.857 31.8974 182.352 31.0962C181.728 30.0873 180.747 29.5828 179.469 29.5828C178.281 29.5828 177.33 30.0873 176.587 31.0665C175.992 31.838 175.636 32.7876 175.517 33.8855H183.066Z" fill="white"/>
    <path d="M62.1654 7.23816C62.1654 9.22631 61.571 10.7397 60.3525 11.7486C59.2529 12.6685 57.6777 13.1433 55.6271 13.1433C54.6166 13.1433 53.7547 13.0839 53.0117 13.0246V2.10458C53.9627 1.95621 54.9732 1.86719 56.0728 1.86719C58.0344 1.86719 59.4906 2.28262 60.4714 3.14316C61.6007 4.09273 62.1654 5.45773 62.1654 7.23816ZM60.2633 7.29751C60.2633 5.99186 59.9067 5.01262 59.2231 4.30045C58.5396 3.61795 57.5291 3.26186 56.2214 3.26186C55.6568 3.26186 55.1813 3.29153 54.7949 3.38056V11.6892C55.0029 11.7189 55.419 11.7486 56.0134 11.7486C57.3805 11.7486 58.4207 11.3628 59.1637 10.621C59.9067 9.84946 60.2633 8.75153 60.2633 7.29751Z" fill="white"/>
    <path d="M72.1218 8.98953C72.1218 10.2062 71.7652 11.2447 71.0519 12.0163C70.3089 12.8175 69.3282 13.2329 68.1097 13.2329C66.9209 13.2329 65.9996 12.8471 65.2863 12.0756C64.6027 11.3041 64.2461 10.3249 64.2461 9.1379C64.2461 7.89159 64.6027 6.88268 65.316 6.08149C66.0293 5.28029 67.01 4.89453 68.2285 4.89453C69.4173 4.89453 70.3386 5.28029 71.0816 6.05181C71.7949 6.82333 72.1218 7.80257 72.1218 8.98953ZM70.2792 9.04888C70.2792 8.30703 70.1306 7.68388 69.8037 7.14975C69.4173 6.49692 68.9121 6.20018 68.1988 6.20018C67.4855 6.20018 66.9506 6.5266 66.5642 7.14975C66.2373 7.68388 66.0887 8.3367 66.0887 9.07855C66.0887 9.8204 66.2373 10.4435 66.5642 10.9777C66.9506 11.6305 67.4855 11.9272 68.1691 11.9272C68.8526 11.9272 69.3876 11.6008 69.774 10.948C70.1009 10.4139 70.2792 9.79072 70.2792 9.04888Z" fill="white"/>
    <path d="M85.4954 5.04297L82.999 13.0549H81.3644L80.3242 9.58307C80.0567 8.72253 79.8487 7.86199 79.6703 7.00145H79.6406C79.492 7.89166 79.284 8.7522 78.9868 9.58307L77.8872 13.0549H76.2229L73.875 5.04297H75.7176L76.6092 8.84123C76.8173 9.73144 77.0253 10.592 77.1442 11.4229H77.1739C77.2928 10.7404 77.5305 9.90949 77.8277 8.8709L78.9571 5.04297H80.4133L81.513 8.78188C81.7805 9.70177 81.9885 10.5623 82.1668 11.4229H82.2262C82.3451 10.592 82.5234 9.73144 82.7612 8.78188L83.742 5.04297H85.4954Z" fill="white"/>
    <path d="M94.7385 13.0552H92.9553V8.48545C92.9553 7.0611 92.4203 6.3786 91.3504 6.3786C90.8154 6.3786 90.3994 6.55665 90.0725 6.97208C89.7455 7.35784 89.5672 7.83262 89.5672 8.33708V13.0849H87.784V7.32817C87.784 6.61599 87.7543 5.87415 87.7246 5.04328H89.2997L89.3889 6.28958H89.4483C89.6564 5.90382 89.9536 5.57741 90.3697 5.31034C90.8452 5.0136 91.3801 4.86523 91.9745 4.86523C92.7175 4.86523 93.3416 5.10263 93.8469 5.57741C94.471 6.17089 94.7682 7.0611 94.7682 8.21838V13.0552H94.7385Z" fill="white"/>
    <path d="M99.6426 13.0548H97.8594V1.36328H99.6426V13.0548Z" fill="white"/>
    <path d="M110.163 8.98953C110.163 10.2062 109.806 11.2447 109.093 12.0163C108.35 12.8175 107.369 13.2329 106.151 13.2329C104.962 13.2329 104.041 12.8471 103.327 12.0756C102.614 11.3041 102.287 10.3249 102.287 9.1379C102.287 7.89159 102.644 6.88268 103.357 6.08149C104.07 5.28029 105.051 4.89453 106.27 4.89453C107.458 4.89453 108.38 5.28029 109.123 6.05181C109.806 6.82333 110.163 7.80257 110.163 8.98953ZM108.29 9.04888C108.29 8.30703 108.142 7.68388 107.815 7.14975C107.429 6.49692 106.923 6.20018 106.21 6.20018C105.497 6.20018 104.962 6.5266 104.576 7.14975C104.249 7.68388 104.1 8.3367 104.1 9.07855C104.1 9.8204 104.249 10.4435 104.576 10.9777C104.962 11.6305 105.497 11.9272 106.18 11.9272C106.864 11.9272 107.399 11.6008 107.785 10.948C108.142 10.4139 108.29 9.79072 108.29 9.04888Z" fill="white"/>
    <path d="M118.782 13.0549H117.177L117.028 12.135H116.969C116.434 12.8768 115.632 13.2329 114.621 13.2329C113.848 13.2329 113.254 12.9955 112.778 12.5207C112.362 12.0756 112.154 11.5415 112.154 10.8887C112.154 9.90942 112.57 9.16757 113.373 8.63344C114.205 8.12899 115.334 7.86192 116.82 7.86192V7.71355C116.82 6.64529 116.256 6.14083 115.156 6.14083C114.354 6.14083 113.67 6.34855 113.076 6.73431L112.719 5.57703C113.462 5.10225 114.383 4.89453 115.483 4.89453C117.593 4.89453 118.633 5.99247 118.633 8.21801V11.1557C118.663 11.9569 118.693 12.5801 118.782 13.0549ZM116.939 10.2952V9.04888C114.978 9.0192 113.997 9.55333 113.997 10.6513C113.997 11.0667 114.116 11.3931 114.354 11.6008C114.591 11.8085 114.889 11.9272 115.215 11.9272C115.602 11.9272 115.958 11.8085 116.315 11.5415C116.642 11.3041 116.85 10.9777 116.939 10.5919C116.909 10.5326 116.939 10.4139 116.939 10.2952Z" fill="white"/>
    <path d="M128.916 13.0548H127.341L127.251 11.7788H127.192C126.687 12.7581 125.825 13.2328 124.606 13.2328C123.626 13.2328 122.823 12.8471 122.199 12.1052C121.575 11.3337 121.248 10.3545 121.248 9.16752C121.248 7.86186 121.605 6.82328 122.288 6.02208C122.972 5.28024 123.774 4.89447 124.755 4.89447C125.825 4.89447 126.598 5.25056 127.014 5.99241H127.043V1.36328H128.827V10.8886C128.856 11.6898 128.856 12.402 128.916 13.0548ZM127.073 9.67197V8.33665C127.073 8.09925 127.043 7.92121 127.014 7.77284C126.925 7.35741 126.687 6.97165 126.36 6.70458C126.033 6.40784 125.617 6.25947 125.171 6.25947C124.517 6.25947 123.982 6.52654 123.596 7.06067C123.21 7.5948 123.031 8.2773 123.031 9.07849C123.031 9.87969 123.21 10.5028 123.566 11.0073C123.953 11.5414 124.458 11.8085 125.141 11.8085C125.736 11.8085 126.182 11.6008 126.538 11.1557C126.895 10.7402 127.073 10.2358 127.073 9.67197Z" fill="white"/>
    <path d="M144.163 8.98953C144.163 10.2062 143.806 11.2447 143.093 12.0163C142.35 12.8175 141.369 13.2329 140.151 13.2329C138.962 13.2329 138.041 12.8471 137.327 12.0756C136.644 11.3041 136.287 10.3249 136.287 9.1379C136.287 7.89159 136.644 6.88268 137.357 6.08149C138.07 5.28029 139.051 4.89453 140.27 4.89453C141.458 4.89453 142.38 5.28029 143.093 6.05181C143.806 6.82333 144.163 7.80257 144.163 8.98953ZM142.32 9.04888C142.32 8.30703 142.172 7.68388 141.845 7.14975C141.458 6.49692 140.953 6.20018 140.24 6.20018C139.527 6.20018 138.992 6.5266 138.605 7.14975C138.278 7.68388 138.13 8.3367 138.13 9.07855C138.13 9.8204 138.278 10.4435 138.605 10.9777C138.992 11.6305 139.527 11.9272 140.21 11.9272C140.894 11.9272 141.429 11.6008 141.815 10.948C142.142 10.4139 142.32 9.79072 142.32 9.04888Z" fill="white"/>
    <path d="M153.762 13.0552H151.979V8.48545C151.979 7.0611 151.444 6.3786 150.374 6.3786C149.839 6.3786 149.423 6.55665 149.096 6.97208C148.769 7.35784 148.591 7.83262 148.591 8.33708V13.0849H146.807V7.32817C146.807 6.61599 146.778 5.87415 146.748 5.04328H148.323L148.412 6.28958H148.472C148.68 5.90382 149.007 5.57741 149.393 5.31034C149.869 5.0136 150.404 4.86523 150.998 4.86523C151.741 4.86523 152.365 5.10263 152.87 5.57741C153.494 6.17089 153.792 7.0611 153.792 8.21838V13.0552H153.762Z" fill="white"/>
    <path d="M165.739 6.37816H163.778V10.2654C163.778 11.2447 164.134 11.7491 164.818 11.7491C165.145 11.7491 165.412 11.7195 165.62 11.6601L165.68 13.0251C165.323 13.1438 164.877 13.2328 164.283 13.2328C163.57 13.2328 163.035 13.0251 162.648 12.58C162.262 12.1646 162.054 11.4227 162.054 10.4138V6.37816H160.865V5.04284H162.054V3.58882L163.807 3.05469V5.04284H165.769V6.37816H165.739Z" fill="white"/>
    <path d="M175.189 13.0548H173.406V8.51469C173.406 7.09034 172.871 6.3485 171.801 6.3485C170.969 6.3485 170.404 6.76393 170.107 7.5948C170.047 7.77284 170.018 7.98056 170.018 8.24762V13.0548H168.234V1.36328H170.018V6.20013H170.047C170.612 5.30991 171.414 4.89447 172.455 4.89447C173.198 4.89447 173.792 5.13187 174.297 5.60665C174.892 6.20013 175.218 7.12002 175.218 8.2773V13.0548H175.189Z" fill="white"/>
    <path d="M184.938 8.66349C184.938 8.98991 184.908 9.25697 184.878 9.46469H179.529C179.559 10.2659 179.796 10.8594 180.302 11.2748C180.747 11.6606 181.342 11.8386 182.055 11.8386C182.857 11.8386 183.571 11.7199 184.225 11.4528L184.492 12.6991C183.719 13.0256 182.828 13.2036 181.788 13.2036C180.539 13.2036 179.559 12.8475 178.845 12.1057C178.132 11.3638 177.775 10.3846 177.775 9.16795C177.775 7.95132 178.102 6.94241 178.756 6.14121C179.44 5.28067 180.391 4.86523 181.55 4.86523C182.709 4.86523 183.571 5.28067 184.165 6.14121C184.7 6.82371 184.938 7.68425 184.938 8.66349ZM183.214 8.21838C183.214 7.68425 183.095 7.23915 182.857 6.85339C182.56 6.34893 182.085 6.11154 181.431 6.11154C180.866 6.11154 180.361 6.34893 180.004 6.82371C179.707 7.20947 179.529 7.68425 179.469 8.21838H183.214Z" fill="white"/>
  </g>
  <defs>
    <clipPath id="clip0_132_29386">
      <rect width="193.533" height="49.5851" fill="white" transform="translate(0.466797 0.798828)"/>
    </clipPath>
  </defs>
</svg>