<svg xmlns:xlink="http://www.w3.org/1999/xlink" xmlns="http://www.w3.org/2000/svg" viewBox="0 0 24 24" fill="none" width="28" height="28" color="#222222"><path d="M3 7.91A4.91 4.91 0 0 1 7.91 3h8.18A4.91 4.91 0 0 1 21 7.91v8.18A4.91 4.91 0 0 1 16.09 21H7.91A4.91 4.91 0 0 1 3 16.09V7.91Z" fill="#0067FF"></path><path d="M10.722 16.088c-.46 0-.92-.184-1.276-.549l-3.261-3.367a1.152 1.152 0 0 1 0-1.596 1.07 1.07 0 0 1 1.548 0l2.998 3.093 5.556-5.45a1.073 1.073 0 0 1 1.548.042c.416.451.4 1.167-.04 1.596l-5.832 5.718c-.35.345-.797.516-1.241.516v-.003Z" fill="#FFFFFF"></path></svg>