<svg xmlns:xlink="http://www.w3.org/1999/xlink" xmlns="http://www.w3.org/2000/svg" viewBox="0 0 24 24" width="20" height="20" color="var(--simentic-on-surface, #121416)"><path d="M3 7.024c0-1.5 1.209-2.714 2.7-2.714h12.6c1.491 0 2.7 1.215 2.7 2.714v11.762a2.707 2.707 0 0 1-2.7 2.714H5.7A2.707 2.707 0 0 1 3 18.786V7.024Z" fill="#E5E9EE"></path><path d="M7.5 3.857c0-.75.604-1.357 1.35-1.357.746 0 1.35.608 1.35 1.357v1.81c0 .75-.604 1.357-1.35 1.357-.746 0-1.35-.608-1.35-1.357v-1.81Zm6.3 0c0-.75.604-1.357 1.35-1.357.746 0 1.35.608 1.35 1.357v1.81c0 .75-.604 1.357-1.35 1.357-.746 0-1.35-.608-1.35-1.357v-1.81Z" fill="#151E42"></path><path fill-rule="evenodd" clip-rule="evenodd" d="M16.266 10.939a.908.908 0 0 1-.06 1.278l-5.298 4.842a.448.448 0 0 1-.649-.046l-2.55-3.077a.908.908 0 0 1 .115-1.274.897.897 0 0 1 1.267.116l1.348 1.626a.448.448 0 0 0 .649.045l3.907-3.57a.897.897 0 0 1 1.271.06Z" fill="#0067FF"></path></svg>