<svg xmlns:xlink="http://www.w3.org/1999/xlink" xmlns="http://www.w3.org/2000/svg" viewBox="0 0 24 24" width="40" height="40" style="margin-right:16px" color="var(--simentic-on-surface, #121416)"><path d="M11.487 3.5c4.845 0 8.779 3.845 8.779 8.58v4.336c0 1.254-1.041 2.271-2.324 2.271H5.032c-1.283 0-2.324-1.017-2.324-2.271V12.08c0-4.735 3.933-8.58 8.779-8.58Z" fill="#303D4C"></path><path d="M19.57 12.817c0 4.243-3.52 7.683-7.861 7.683-4.341 0-7.865-3.44-7.865-7.683 0-.075 0-.148.006-.223.092-3.215 2.204-5.934 5.144-6.99.27-.096.545-.18.83-.245a7.921 7.921 0 0 1 1.884-.225c4.181 0 7.6 3.191 7.847 7.214.009.157.014.313.014.47l.001-.001Z" fill="#FFC9AC"></path><path d="M19.555 12.348v.001ZM9.406 7.628c1.058 3.02 3.989 5.19 7.438 5.19a7.98 7.98 0 0 0 2.71-.47c-.246-4.022-3.665-7.213-7.846-7.213a7.94 7.94 0 0 0-1.884.225c-.285.064-.56.148-.83.243C6.054 6.66 3.942 9.38 3.85 12.594c2.601-.623 4.697-2.513 5.556-4.966Z" fill="#303D4C"></path><path d="M3.41 13.208a8.31 8.31 0 0 1-.01-.39c0-.087 0-.17.006-.256.095-3.314 2.228-6.213 5.435-7.366.315-.112.604-.197.883-.26a8.341 8.341 0 0 1 1.984-.237c4.388 0 8.029 3.348 8.29 7.623a8.319 8.319 0 0 1 .014.714l-.889-.022a7.257 7.257 0 0 0-.012-.641c-.233-3.815-3.485-6.804-7.402-6.804-.604 0-1.201.071-1.777.213a6.722 6.722 0 0 0-.786.23C6.285 7.041 4.38 9.63 4.294 12.608c-.006.085-.005.146-.005.21 0 .117.002.234.009.349l-.889.043v-.002Z" fill="#C2C9D3"></path><path d="M9.612 14.803c.293 0 .53-.362.53-.808 0-.447-.237-.809-.53-.809-.293 0-.53.362-.53.809 0 .446.237.808.53.808Zm4.191 0c.292 0 .53-.362.53-.808 0-.447-.238-.809-.53-.809-.293 0-.53.362-.53.809 0 .446.237.808.53.808Z" fill="#303D4C"></path><path d="M18.48 18.501h-5.14v-.579h5.14a.652.652 0 0 0 .658-.643v-1.156h.593v1.156c0 .674-.561 1.223-1.252 1.223Z" fill="#C2C9D3"></path><path d="M20.767 10.633h-1.223c-.68 0-1.233.54-1.233 1.205v4.077c0 .665.552 1.204 1.233 1.204h1.223c.681 0 1.233-.54 1.233-1.204v-4.077c0-.665-.552-1.205-1.233-1.205Zm-16.311 0H3.233c-.681 0-1.233.54-1.233 1.205v4.077c0 .665.552 1.204 1.233 1.204h1.223c.68 0 1.233-.54 1.233-1.204v-4.077c0-.665-.552-1.205-1.233-1.205Z" fill="#969EAA"></path><path d="M15.007 17.445h-2.155a.712.712 0 0 0-.72.704v.125c0 .389.322.704.72.704h2.155c.398 0 .72-.315.72-.704v-.125a.712.712 0 0 0-.72-.704Z" fill="#5A6470"></path></svg>