<svg xmlns:xlink="http://www.w3.org/1999/xlink" xmlns="http://www.w3.org/2000/svg" fill="none" viewBox="0 0 24 24" width="24" height="24" color="var(--simentic-on-surface, #121416)"><path d="M6.397 9.85 3.11 19.438c-.52 1.523.912 2.98 2.408 2.451l9.42-3.336c1.315-.464 1.708-2.181.71-3.185L9.507 9.116c-.987-1.004-2.663-.615-3.13.723l.021.011Z" fill="#EF4452"></path><path d="M10.29 7.561c1.178 0 2.133-.971 2.133-2.17 0-1.199-.955-2.17-2.132-2.17-1.178 0-2.133.971-2.133 2.17 0 1.199.955 2.17 2.133 2.17Z" fill="#FFCD00"></path><path d="m19.6 11.608-2.572.452a.83.83 0 0 0-.666.96l.445 2.618a.818.818 0 0 0 .944.678l2.571-.452a.83.83 0 0 0 .666-.961l-.444-2.618a.818.818 0 0 0-.944-.677Z" fill="#FFB42E"></path><path d="m18.904 3.005-1.76.313a.92.92 0 0 0-.754.788l-.254 1.803a.94.94 0 0 0 .509.972l1.612.81a.91.91 0 0 0 1.072-.184l1.252-1.306a.965.965 0 0 0 .159-1.09l-.838-1.61a.92.92 0 0 0-.976-.485l-.021-.011Z" fill="#FC8316"></path><path d="m17.665 10.273-.24-1.415-3.533.62.24 1.416 3.533-.621Z" fill="#FF9D31"></path></svg>