<svg xmlns:xlink="http://www.w3.org/1999/xlink" xmlns="http://www.w3.org/2000/svg" viewBox="0 0 24 24" width="16" height="16" color="#6A7583" style="padding-top: 1px;"><path fill-rule="evenodd" clip-rule="evenodd" d="M16.722 7.714h-5.666a1.897 1.897 0 0 0-1.89 1.905v8.572c0 1.051.846 1.904 1.89 1.904h5.666a1.897 1.897 0 0 0 1.89-1.904V9.619a1.897 1.897 0 0 0-1.89-1.905ZM11.056 5.81c-2.087 0-3.778 1.705-3.778 3.809v8.572c0 2.103 1.691 3.809 3.778 3.809h5.666c2.087 0 3.778-1.706 3.778-3.81V9.62c0-2.104-1.691-3.81-3.778-3.81h-5.666Z" fill="#6A7583"></path><path fill-rule="evenodd" clip-rule="evenodd" d="M7.278 3.905h5.666c1.044 0 1.89.853 1.89 1.905h1.888c0-2.104-1.691-3.81-3.778-3.81H7.278C5.19 2 3.5 3.706 3.5 5.81v8.571c0 2.104 1.691 3.81 3.778 3.81v-1.905a1.897 1.897 0 0 1-1.89-1.905V5.81c0-1.052.847-1.905 1.89-1.905Z" fill="#6A7583"></path></svg>