<svg xmlns:xlink="http://www.w3.org/1999/xlink" xmlns="http://www.w3.org/2000/svg" viewBox="0 0 24 24" width="56" height="56" color="var(--simentic-on-surface, #121416)"><path d="M12 21a9 9 0 1 0 0-18 9 9 0 0 0 0 18Z" fill="#7AD38C"></path><path d="M12 19.2a7.2 7.2 0 1 0 0-14.4 7.2 7.2 0 0 0 0 14.4Z" fill="#99EAAF"></path><path d="M12.729 7.657V6.98a.799.799 0 0 0-.238-.568.817.817 0 0 0-.574-.235.808.808 0 0 0-.812.803v.706c-1.361.282-2.177 1.213-2.177 2.42 0 1.316 1.12 1.954 2.178 2.37.068.027.136.053.204.077.35.133.703.262 1.003.41.155.077.296.16.416.25.247.186.404.41.404.701a.885.885 0 0 1-.404.77 1.022 1.022 0 0 1-.088.052c-.216.116-.504.183-.868.183-.23 0-.453-.026-.667-.075a3.273 3.273 0 0 1-.6-.2 4.253 4.253 0 0 1-.506-.267.764.764 0 0 0-1.009.202l-.02.027a.753.753 0 0 0 .245 1.108 5.467 5.467 0 0 0 1.89.645v.661c0 .444.363.804.81.804.45 0 .813-.36.813-.804v-.716c1.49-.308 2.282-1.31 2.282-2.506 0-1.499-1.176-2.064-2.282-2.481l-.149-.055-.213-.077c-.506-.183-.973-.35-1.261-.592a.904.904 0 0 1-.214-.248.672.672 0 0 1-.086-.335.82.82 0 0 1 .345-.69 1.006 1.006 0 0 1 .238-.127c.055-.022.114-.041.178-.057a2.298 2.298 0 0 1 1.322.099c.16.058.316.13.471.217a.775.775 0 0 0 .742.004.752.752 0 0 0-.003-1.328 4.477 4.477 0 0 0-1.37-.47Z" fill="#078C58"></path></svg>