<svg xmlns:xlink="http://www.w3.org/1999/xlink" xmlns="http://www.w3.org/2000/svg" viewBox="0 0 24 24" width="24" height="24" color="#CDD1DC" class="Login_view_ShowPasswordIcon__Rsn_f"><path d="m11.845 9.368 2.882 2.828v-.143a2.66 2.66 0 0 0-.799-1.898A2.75 2.75 0 0 0 12 9.368h-.155Zm-3.909.716 1.41 1.387a2.427 2.427 0 0 0-.073.582c0 .711.287 1.394.799 1.898a2.75 2.75 0 0 0 1.928.786c.2 0 .4-.027.59-.072L14 16.052a4.564 4.564 0 0 1-2 .474 4.583 4.583 0 0 1-3.214-1.31 4.438 4.438 0 0 1-1.331-3.163c0-.707.181-1.37.481-1.969ZM2.91 5.136 5.391 7.58C3.89 8.742 2.709 10.263 2 12.053c1.573 3.927 5.455 6.71 10 6.71 1.41 0 2.755-.268 3.982-.751l.39.375L19.028 21l1.155-1.136L4.064 4M12 7.579a4.58 4.58 0 0 1 3.214 1.31 4.438 4.438 0 0 1 1.332 3.164 4.24 4.24 0 0 1-.328 1.628l2.664 2.622A10.604 10.604 0 0 0 22 12.053c-1.573-3.928-5.454-6.71-10-6.71-1.273 0-2.49.223-3.636.625l1.972 1.924A4.654 4.654 0 0 1 12 7.58Z" fill="#CDD1DC"></path></svg>