<svg xmlns:xlink="http://www.w3.org/1999/xlink" xmlns="http://www.w3.org/2000/svg" viewBox="0 0 24 24" width="25" height="25" color="#6A7583"><path d="M19.962 11.446a.711.711 0 0 0-.983 0l-7.397 7.074c-1.517 1.45-3.973 1.45-5.489 0a3.596 3.596 0 0 1 0-5.248l8.576-8.2a2.506 2.506 0 0 1 3.43 0 2.25 2.25 0 0 1 0 3.28l-7.204 6.888c-.377.36-.994.36-1.372 0a.902.902 0 0 1 0-1.312l5.98-5.718a.711.711 0 0 0-.983-1.028l-6.026 5.762a2.25 2.25 0 0 0 0 3.28 2.506 2.506 0 0 0 3.43 0l7.204-6.888a3.596 3.596 0 0 0 0-5.249c-1.516-1.45-3.972-1.45-5.488 0l-8.576 8.2c-2.085 1.995-2.085 5.223 0 7.217 2.086 1.995 5.461 1.995 7.547 0l7.351-7.03a.711.711 0 0 0 0-1.028Z" fill="#6A7583"></path></svg>