<svg xmlns:xlink="http://www.w3.org/1999/xlink" xmlns="http://www.w3.org/2000/svg" viewBox="0 0 24 24" width="24" height="24" color="var(--simentic-on-surface, #121416)"><path d="M11.91 7.646c-.5.847-1.585 1.21-2.533.845L6.58 7.417c-1.348-.518-1.911-2.04-1.201-3.245.71-1.204 2.37-1.543 3.54-.723l2.426 1.704c.822.577 1.064 1.645.564 2.493Z" fill="#E94146"></path><path d="M12.092 7.646c.5.847 1.584 1.21 2.532.845l2.797-1.074c1.348-.518 1.911-2.04 1.201-3.245-.71-1.204-2.371-1.543-3.54-.723l-2.426 1.704c-.822.577-1.064 1.645-.564 2.493Z" fill="#E94146"></path><path d="M4.32 10.011h15.36v9.046c0 1.072-.916 1.943-2.045 1.943H6.365c-1.128 0-2.045-.87-2.045-1.943v-9.046Z" fill="#FFDF66"></path><path d="M20.062 7.105H3.938c-.518 0-.938.399-.938.89v2.935c0 .492.42.89.938.89h16.124c.518 0 .938-.398.938-.89V7.996c0-.492-.42-.891-.938-.891Z" fill="#FFC50C"></path><path d="M12.002 4.179c1.06 0 1.92.817 1.92 1.823V21h-3.84V6.002c0-1.006.86-1.823 1.92-1.823Z" fill="#E94146"></path></svg>