<svg xmlns:xlink="http://www.w3.org/1999/xlink" xmlns="http://www.w3.org/2000/svg" viewBox="0 0 24 25" fill="none" width="24" height="24" color="#82879B"><path d="M11.991 3.5C7.023 3.5 3 7.532 3 12.5C3 17.468 7.023 21.5 11.991 21.5C16.968 21.5 21 17.468 21 12.5C21 7.532 16.968 3.5 11.991 3.5ZM18.228 8.9H15.573C15.285 7.775 14.871 6.695 14.331 5.696C15.987 6.263 17.364 7.415 18.228 8.9ZM12 5.336C12.747 6.416 13.332 7.613 13.719 8.9H10.281C10.668 7.613 11.253 6.416 12 5.336ZM5.034 14.3C4.89 13.724 4.8 13.121 4.8 12.5C4.8 11.879 4.89 11.276 5.034 10.7H8.076C8.004 11.294 7.95 11.888 7.95 12.5C7.95 13.112 8.004 13.706 8.076 14.3H5.034ZM5.772 16.1H8.427C8.715 17.225 9.129 18.305 9.669 19.304C8.013 18.737 6.636 17.594 5.772 16.1ZM8.427 8.9H5.772C6.636 7.406 8.013 6.263 9.669 5.696C9.129 6.695 8.715 7.775 8.427 8.9ZM12 19.664C11.253 18.584 10.668 17.387 10.281 16.1H13.719C13.332 17.387 12.747 18.584 12 19.664ZM14.106 14.3H9.894C9.813 13.706 9.75 13.112 9.75 12.5C9.75 11.888 9.813 11.285 9.894 10.7H14.106C14.187 11.285 14.25 11.888 14.25 12.5C14.25 13.112 14.187 13.706 14.106 14.3ZM14.331 19.304C14.871 18.305 15.285 17.225 15.573 16.1H18.228C17.364 17.585 15.987 18.737 14.331 19.304ZM15.924 14.3C15.996 13.706 16.05 13.112 16.05 12.5C16.05 11.888 15.996 11.294 15.924 10.7H18.966C19.11 11.276 19.2 11.879 19.2 12.5C19.2 13.121 19.11 13.724 18.966 14.3H15.924Z" fill="#0067FF"></path></svg>