<svg xmlns:xlink="http://www.w3.org/1999/xlink" xmlns="http://www.w3.org/2000/svg" width="212" height="51" viewBox="0 0 212 51" fill="none">
  <g clip-path="url(#clip0_132_29418)">
    <path d="M22.5459 23.9687L30.3032 16.2234L4.40183 1.29072C3.08704 0.535885 1.50929 1.12663 0.884766 2.34093L22.5459 23.9687Z" fill="white"/>
    <path d="M21.6922 24.8218L0.589844 3.75195V45.8917L21.6922 24.8218Z" fill="white"/>
    <path d="M22.5459 25.6758L0.884766 47.3364C1.50929 48.5507 3.08704 49.1414 4.40183 48.3866L30.3032 33.4539L22.5459 25.6758Z" fill="white"/>
    <path d="M41.4133 22.6238L31.4209 16.8477L23.4336 24.8227L31.4209 32.7977L41.4462 27.0216C43.1226 26.037 43.1226 23.6084 41.4133 22.6238Z" fill="white"/>
    <path d="M68.6637 7.09968C68.6637 8.60935 68.2035 9.82366 67.3161 10.7426C66.2971 11.8256 64.9494 12.3507 63.3059 12.3507C61.7282 12.3507 60.3805 11.7928 59.2958 10.7098C58.1783 9.62675 57.6523 8.28116 57.6523 6.64021C57.6523 5.03207 58.2111 3.68649 59.2958 2.57064C60.4134 1.48761 61.7282 0.929688 63.3059 0.929688C64.0948 0.929688 64.8508 1.09378 65.5411 1.38915C66.2642 1.68453 66.823 2.11117 67.2503 2.60346L66.2971 3.55521C65.574 2.70192 64.5879 2.27527 63.3059 2.27527C62.1555 2.27527 61.1694 2.6691 60.3148 3.48958C59.4602 4.31005 59.0657 5.32745 59.0657 6.64021C59.0657 7.92015 59.493 8.97036 60.3148 9.79084C61.1365 10.6113 62.1555 11.0051 63.3059 11.0051C64.5221 11.0051 65.5411 10.6113 66.3628 9.79084C66.8888 9.26574 67.1846 8.5109 67.2832 7.59196H63.3059V6.2792H68.598C68.6637 6.57457 68.6637 6.83712 68.6637 7.09968Z" fill="white"/>
    <path d="M68.6633 7.10089H68.4661C68.4661 8.57775 68.0388 9.72642 67.1513 10.6125C66.1652 11.6627 64.8833 12.155 63.2727 12.155C61.7278 12.155 60.4459 11.6299 59.3941 10.5797C58.3094 9.52951 57.7834 8.21674 57.7834 6.64143C57.7834 5.06611 58.3094 3.78617 59.3941 2.70314C60.4788 1.65293 61.7607 1.12782 63.2727 1.12782C64.0287 1.12782 64.7518 1.2591 65.4421 1.55447C66.1324 1.84984 66.6912 2.24367 67.0856 2.73596L67.2171 2.60468L67.0856 2.4734L66.1324 3.42516L66.2638 3.55643L66.3953 3.42516C65.6393 2.50622 64.5875 2.07957 63.2727 2.07957C62.0894 2.07957 61.0376 2.50622 60.1829 3.3267C59.2955 4.18 58.8681 5.26303 58.8681 6.60861C58.8681 7.92137 59.2955 9.03722 60.1829 9.89052C61.0376 10.7438 62.0894 11.1376 63.2727 11.1376C64.5217 11.1376 65.6065 10.711 66.4611 9.8577C67.0199 9.29977 67.3486 8.51212 67.4143 7.52754V7.33063H63.437V6.37887H68.5319V6.21478L68.3346 6.2476C68.3675 6.51015 68.4004 6.7727 68.4004 7.03526H68.762C68.762 6.7727 68.7291 6.47733 68.6962 6.18196L68.6633 6.01786H63.0426V7.69164H67.1842V7.49472H66.987C66.9212 8.41366 66.6254 9.10286 66.1324 9.59514C65.3435 10.3828 64.3903 10.7438 63.207 10.7438C62.0894 10.7438 61.169 10.35 60.3473 9.59514C59.5584 8.80749 59.164 7.82291 59.164 6.57579C59.164 5.32866 59.5584 4.34409 60.3473 3.55643C61.169 2.76877 62.0894 2.40776 63.207 2.40776C64.456 2.40776 65.3764 2.80159 66.0666 3.62207L66.1981 3.78617L67.3157 2.70314L67.4472 2.57186L67.3486 2.44058C66.8884 1.91548 66.2967 1.48883 65.5736 1.16064C64.8504 0.832448 64.0616 0.701172 63.2727 0.701172C61.6621 0.701172 60.2487 1.2591 59.1311 2.37495C57.9807 3.49079 57.4219 4.90202 57.4219 6.54297C57.4219 8.18392 57.9807 9.59515 59.1311 10.711C60.2487 11.8268 61.6621 12.3848 63.2727 12.3848C64.9491 12.3848 66.3625 11.8268 67.4143 10.711L67.2828 10.5797L67.4143 10.711C68.3675 9.75924 68.8277 8.51212 68.8277 6.9368H68.6633" fill="white"/>
    <path d="M77.045 2.57019H72.0817V6.0162H76.552V7.32896H72.0817V10.775H77.045V12.1205H70.7012V1.22461H77.045V2.57019Z" fill="white"/>
    <path d="M77.045 2.57179V2.37488H71.9173V6.18189H76.3876V7.13365H71.9173V10.9735H76.8806V11.9252H70.8655V1.42313H76.8806V2.57179H77.045V2.37488V2.57179H77.2422V1.0293H70.5039V12.2862H77.2422V10.6125H72.2789V7.49466H76.7492V5.82088H72.2789V2.73589H77.2422V2.57179H77.045Z" fill="white"/>
    <path d="M82.9609 12.1205H81.5475V2.57019H78.5234V1.22461H86.0177V2.57019H82.9609V12.1205Z" fill="white"/>
    <path d="M82.9608 12.1221V11.9252H81.7446V2.37488H78.6877V1.42313H85.8205V2.37488H82.7965V12.1221H82.9608V11.9252V12.1221H83.158V2.73589H86.1821V1.0293H78.3262V2.73589H81.3831V12.2862H83.158V12.1221H82.9608Z" fill="white"/>
    <path d="M92.8548 1.22461H91.4414V12.1205H92.8548V1.22461Z" fill="white"/>
    <path d="M91.4414 12.1221H91.6057V1.42313H92.6575V11.9252H91.4414V12.1221H91.6057H91.4414V12.2862H93.0191V1.0293H91.2441V12.2862H91.4414V12.1221Z" fill="white"/>
    <path d="M99.0679 12.1205H97.6545V2.57019H94.5977V1.22461H102.092V2.57019H99.0679V12.1205Z" fill="white"/>
    <path d="M99.0682 12.1221V11.9252H97.852V2.37488H94.7952V1.42313H101.928V2.37488H98.871V12.1221H99.0682V11.9252V12.1221H99.2326V2.73589H102.289V1.0293H94.4336V2.73589H97.4576V12.2862H99.2326V12.1221H99.0682Z" fill="white"/>
    <path d="M116.291 10.7105C115.206 11.8264 113.892 12.3515 112.281 12.3515C110.67 12.3515 109.355 11.7936 108.271 10.7105C107.186 9.5947 106.66 8.24911 106.66 6.6738C106.66 5.09848 107.186 3.72008 108.271 2.63705C109.355 1.5212 110.67 0.996094 112.281 0.996094C113.859 0.996094 115.206 1.55402 116.258 2.66987C117.343 3.78572 117.869 5.1313 117.869 6.70661C117.902 8.24911 117.376 9.5947 116.291 10.7105ZM109.323 9.79161C110.144 10.6121 111.13 11.0059 112.281 11.0059C113.464 11.0059 114.45 10.6121 115.239 9.79161C116.061 8.97113 116.455 7.92092 116.455 6.6738C116.455 5.42667 116.061 4.37646 115.239 3.55598C114.45 2.73551 113.431 2.34168 112.281 2.34168C111.098 2.34168 110.111 2.73551 109.323 3.55598C108.534 4.37646 108.106 5.42667 108.106 6.6738C108.106 7.92092 108.534 8.97113 109.323 9.79161Z" fill="white"/>
    <path d="M116.291 10.7102L116.159 10.5789C115.107 11.6619 113.825 12.1871 112.281 12.1871C110.736 12.1871 109.454 11.6619 108.402 10.5789C107.35 9.49589 106.857 8.21594 106.857 6.67344C106.857 5.13095 107.383 3.81818 108.402 2.76797C109.454 1.68494 110.703 1.15984 112.281 1.15984C113.825 1.15984 115.107 1.68494 116.159 2.76797C117.211 3.851 117.704 5.13095 117.704 6.67344C117.704 8.21594 117.178 9.52871 116.159 10.5789L116.422 10.8415C117.54 9.72562 118.099 8.3144 118.066 6.67344C118.066 5.06531 117.507 3.65409 116.389 2.50542C115.305 1.35675 113.924 0.798828 112.281 0.798828C110.637 0.798828 109.257 1.35675 108.139 2.50542C107.021 3.62127 106.463 5.03249 106.496 6.67344C106.496 8.3144 107.054 9.6928 108.139 10.8415C109.257 11.9901 110.637 12.5481 112.281 12.5481C113.924 12.5481 115.305 11.9901 116.422 10.8415L116.291 10.7102ZM109.322 9.79126L109.191 9.92253C110.045 10.7758 111.064 11.2025 112.281 11.2025C113.497 11.2025 114.549 10.7758 115.37 9.92253C116.225 9.06924 116.652 7.98621 116.652 6.67344C116.652 5.36068 116.225 4.27765 115.37 3.42436C114.516 2.57106 113.497 2.14441 112.281 2.14441C111.064 2.14441 110.013 2.57106 109.191 3.42436C108.336 4.27765 107.942 5.36068 107.942 6.67344C107.942 7.98621 108.369 9.06924 109.191 9.92253L109.454 9.65998C108.665 8.87232 108.303 7.88775 108.303 6.67344C108.303 5.45914 108.698 4.44175 109.454 3.68691C110.243 2.89925 111.163 2.50542 112.281 2.50542C113.398 2.50542 114.351 2.89925 115.107 3.68691C115.863 4.47457 116.258 5.45914 116.258 6.67344C116.258 7.88775 115.863 8.87232 115.107 9.65998C114.318 10.4476 113.398 10.8415 112.281 10.8415C111.163 10.8415 110.21 10.4476 109.454 9.65998L109.322 9.79126Z" fill="white"/>
    <path d="M119.875 12.1205V1.22461H121.584L126.876 9.69194H126.942L126.876 7.59151V1.22461H128.29V12.1205H126.811L121.256 3.22657H121.223L121.256 5.327V12.1205H119.875Z" fill="white"/>
    <path d="M119.875 12.1221H120.039V1.42313H121.486L126.778 9.89045H127.106L127.073 7.59311V1.42313H128.092V11.9252H126.909L121.354 3.06408H121.025L121.091 5.3286V11.9252H119.875V12.1221H120.039H119.875V12.2862H121.453V5.3286L121.387 3.22818H121.223V3.42509H121.255V3.22818L121.124 3.32663L126.712 12.2862H128.454V1.0293H126.712V7.59311L126.745 9.69354H126.942V9.52944H126.876V9.69354L127.041 9.59508L121.683 1.0293H119.678V12.2862H119.875V12.1221Z" fill="white"/>
    <path d="M106.332 28.0052C102.059 28.0052 98.5747 31.2543 98.5747 35.7177C98.5747 40.1483 102.059 43.4302 106.332 43.4302C110.605 43.4302 114.089 40.1483 114.089 35.7177C114.089 31.2543 110.605 28.0052 106.332 28.0052ZM106.332 40.4108C103.998 40.4108 101.96 38.4745 101.96 35.7177C101.96 32.9281 103.998 31.0246 106.332 31.0246C108.666 31.0246 110.704 32.9281 110.704 35.7177C110.704 38.4745 108.699 40.4108 106.332 40.4108ZM89.4041 28.0052C85.131 28.0052 81.6468 31.2543 81.6468 35.7177C81.6468 40.1483 85.131 43.4302 89.4041 43.4302C93.6771 43.4302 97.1613 40.1483 97.1613 35.7177C97.1613 31.2543 93.6771 28.0052 89.4041 28.0052ZM89.4041 40.4108C87.0703 40.4108 85.0324 38.4745 85.0324 35.7177C85.0324 32.9281 87.0703 31.0246 89.4041 31.0246C91.7378 31.0246 93.7757 32.9281 93.7757 35.7177C93.7757 38.4745 91.7378 40.4108 89.4041 40.4108ZM69.2549 30.3682V33.6501H77.1108C76.8807 35.488 76.2561 36.8336 75.3358 37.7853C74.1854 38.934 72.4104 40.1811 69.2549 40.1811C64.423 40.1811 60.643 36.3085 60.643 31.4512C60.643 26.6268 64.423 22.7214 69.2549 22.7214C71.8516 22.7214 73.758 23.7388 75.1714 25.0515L77.4723 22.7542C75.5001 20.8835 72.9034 19.4395 69.222 19.4395C62.6152 19.4395 57.0273 24.8218 57.0273 31.4184C57.0273 38.0151 62.5823 43.3974 69.222 43.3974C72.8048 43.3974 75.5001 42.2159 77.6038 40.0498C79.7732 37.8838 80.4306 34.8316 80.4306 32.403C80.4306 31.6482 80.3649 30.9261 80.2663 30.3682H69.2549ZM151.659 32.9281C151.002 31.1887 149.063 28.0052 145.053 28.0052C141.075 28.0052 137.755 31.123 137.755 35.7177C137.755 40.0498 141.042 43.4302 145.414 43.4302C148.964 43.4302 151.002 41.2641 151.857 40.017L149.227 38.2448C148.34 39.5247 147.156 40.378 145.414 40.378C143.672 40.378 142.456 39.5904 141.667 38.0479L152.021 33.7814L151.659 32.9281ZM141.108 35.488C141.01 32.5014 143.409 30.9918 145.151 30.9918C146.499 30.9918 147.649 31.6482 148.011 32.6327L141.108 35.488ZM132.694 42.9707H136.079V20.2928H132.694V42.9707ZM127.139 29.7446H127.007C126.251 28.8257 124.772 28.0052 122.931 28.0052C119.053 28.0052 115.503 31.3856 115.503 35.7505C115.503 40.0827 119.053 43.4302 122.931 43.4302C124.772 43.4302 126.251 42.6097 127.007 41.6908H127.139V42.8066C127.139 45.7604 125.561 47.3357 122.997 47.3357C120.926 47.3357 119.611 45.8588 119.085 44.5789L116.127 45.7932C116.982 47.828 119.217 50.355 122.964 50.355C126.941 50.355 130.327 48.0249 130.327 42.3144V28.4647H127.139V29.7446ZM123.227 40.4108C120.893 40.4108 118.921 38.4417 118.921 35.7505C118.921 33.0266 120.893 31.0574 123.227 31.0574C125.528 31.0574 127.369 33.0594 127.369 35.7505C127.369 38.4417 125.561 40.4108 123.227 40.4108ZM167.568 20.2928H159.449V43.0036H162.835V34.405H167.568C171.315 34.405 175.03 31.681 175.03 27.3489C175.03 23.0167 171.315 20.2928 167.568 20.2928ZM167.634 31.2215H162.802V23.4434H167.634C170.165 23.4434 171.611 25.5438 171.611 27.316C171.611 29.0883 170.198 31.2215 167.634 31.2215ZM188.605 27.9724C186.14 27.9724 183.609 29.0554 182.557 31.4512L185.581 32.6984C186.238 31.4512 187.422 31.0246 188.671 31.0246C190.413 31.0246 192.221 32.0748 192.254 33.9455V34.1752C191.629 33.8142 190.314 33.2891 188.704 33.2891C185.449 33.2891 182.163 35.0613 182.163 38.4089C182.163 41.4611 184.825 43.3974 187.816 43.3974C190.084 43.3974 191.366 42.38 192.155 41.1657H192.286V42.9051H195.573V34.208C195.508 30.2041 192.516 27.9724 188.605 27.9724ZM188.211 40.4108C187.093 40.4108 185.548 39.8529 185.548 38.4745C185.548 36.7351 187.487 36.0459 189.131 36.0459C190.61 36.0459 191.333 36.3741 192.221 36.8007C191.991 38.9012 190.15 40.4108 188.211 40.4108ZM207.439 28.4647L203.561 38.3104H203.429L199.386 28.4647H195.738L201.786 42.2159L198.334 49.8627H201.884L211.219 28.4647H207.439ZM176.903 42.9707H180.289V20.2928H176.903V42.9707Z" fill="white"/>
  </g>
  <defs>
    <clipPath id="clip0_132_29418">
      <rect width="210.629" height="49.5896" fill="white" transform="translate(0.589844 0.798828)"/>
    </clipPath>
  </defs>
</svg>