<svg xmlns:xlink="http://www.w3.org/1999/xlink" xmlns="http://www.w3.org/2000/svg" viewBox="0 0 24 24" width="18" height="18" color="#82879B"><path d="M12 21.5v-1.81h6.222v-.904h-3.555v-7.238h3.555v-.905c0-1.75-.607-3.242-1.822-4.479C15.185 4.928 13.719 4.31 12 4.31c-1.719 0-3.185.618-4.4 1.854-1.215 1.237-1.822 2.73-1.822 4.479v.905h3.555v7.238H5.778c-.49 0-.908-.177-1.256-.531A1.76 1.76 0 0 1 4 16.976v-6.333a7.95 7.95 0 0 1 .633-3.156 8.334 8.334 0 0 1 1.723-2.59A8.174 8.174 0 0 1 8.9 3.145 7.577 7.577 0 0 1 12 2.5c1.096 0 2.13.215 3.1.644a8.173 8.173 0 0 1 2.544 1.754 8.333 8.333 0 0 1 1.723 2.59c.422.987.633 2.039.633 3.155v9.047c0 .498-.174.924-.522 1.279a1.699 1.699 0 0 1-1.256.531H12Z" fill="#82879B"></path></svg>