<svg xmlns:xlink="http://www.w3.org/1999/xlink" xmlns="http://www.w3.org/2000/svg" viewBox="0 0 24 24" width="24" height="24" color="#A0A9B9"><path d="M12 3c-2.446 0-2.74 0-3.717.098-.979 0-1.663.195-2.153.391-.587.196-1.076.587-1.565 1.076-.489.49-.782.978-1.076 1.565-.196.587-.391 1.272-.391 2.153C3.098 9.26 3 9.554 3 12s0 2.74.098 3.717c0 .979.195 1.663.391 2.153.196.586.587 1.076 1.076 1.565.49.489.978.782 1.565 1.076.587.195 1.272.391 2.153.391.978 0 1.271.098 3.717.098s2.74 0 3.717-.098c.979 0 1.663-.196 2.153-.391.586-.196 1.076-.587 1.565-1.076.489-.49.782-.979 1.076-1.565.195-.587.391-1.272.391-2.153 0-.978.098-1.271.098-3.717s0-2.74-.098-3.717c0-.979-.196-1.663-.391-2.153-.196-.587-.587-1.076-1.076-1.565-.49-.489-.979-.782-1.565-1.076-.587-.196-1.272-.391-2.153-.391C14.74 3.098 14.446 3 12 3Zm0 1.663c2.446 0 2.74 0 3.62.098.88 0 1.37.196 1.663.293a6.58 6.58 0 0 1 1.076.685c.293.294.489.587.684 1.076.098.294.294.783.294 1.663 0 .979.098 1.272.098 3.62 0 2.445 0 2.739-.098 3.62 0 .88-.196 1.369-.293 1.662a6.582 6.582 0 0 1-.685 1.076c-.294.294-.587.49-1.076.685-.294.098-.783.294-1.663.294-.979 0-1.272.098-3.62.098s-2.74 0-3.62-.098c-.88 0-1.37-.196-1.663-.294a6.576 6.576 0 0 1-1.076-.684c-.293-.294-.489-.587-.684-1.077-.098-.293-.294-.782-.294-1.663 0-.978-.098-1.271-.098-3.62 0-2.445 0-2.738.098-3.619 0-.88.196-1.37.294-1.663A6.58 6.58 0 0 1 5.64 5.74c.294-.293.587-.489 1.076-.685.294-.097.783-.293 1.663-.293.88-.098 1.174-.098 3.62-.098Z" fill="#A0A9B9"></path><path d="M12.003 15.13a3.048 3.048 0 0 1-3.032-3.032 3.048 3.048 0 0 1 3.032-3.033 3.048 3.048 0 0 1 3.033 3.033 3.048 3.048 0 0 1-3.033 3.032Zm0-7.728c-2.543 0-4.695 2.054-4.695 4.696 0 2.641 2.054 4.695 4.695 4.695 2.642 0 4.696-2.054 4.696-4.695 0-2.642-2.152-4.696-4.696-4.696Zm5.968-.098c0 .587-.49 1.076-1.076 1.076a1.085 1.085 0 0 1-1.076-1.076c0-.587.489-1.076 1.076-1.076.587-.098 1.076.391 1.076 1.076Z" fill="#A0A9B9"></path></svg>