<svg xmlns:xlink="http://www.w3.org/1999/xlink" xmlns="http://www.w3.org/2000/svg" viewBox="0 0 24 24" width="18" height="18" color="#0067FF"><path d="M13 21a.968.968 0 0 1-.713-.288A.968.968 0 0 1 12 20a.97.97 0 0 1 .287-.712A.968.968 0 0 1 13 19h6V5h-6a.968.968 0 0 1-.713-.287A.967.967 0 0 1 12 4a.97.97 0 0 1 .287-.712A.968.968 0 0 1 13 3h6c.55 0 1.02.196 1.413.587.39.393.587.863.587 1.413v14c0 .55-.196 1.02-.587 1.413A1.926 1.926 0 0 1 19 21h-6Zm-1.825-8H4a.967.967 0 0 1-.712-.287A.968.968 0 0 1 3 12a.97.97 0 0 1 .288-.713A.967.967 0 0 1 4 11h7.175L9.3 9.125a.918.918 0 0 1-.275-.675c0-.267.092-.5.275-.7a.948.948 0 0 1 .7-.313.946.946 0 0 1 .725.288L14.3 11.3c.2.2.3.433.3.7 0 .267-.1.5-.3.7l-3.575 3.575a.93.93 0 0 1-.713.288 1.02 1.02 0 0 1-.712-.313.973.973 0 0 1-.263-.713.977.977 0 0 1 .288-.687l1.85-1.85Z" fill="#0067FF"></path></svg>