<svg xmlns:xlink="http://www.w3.org/1999/xlink" xmlns="http://www.w3.org/2000/svg" viewBox="0 0 24 24" width="40" height="40" color="var(--simentic-on-surface, #121416)"><path d="m22 15.105-4.295.666-3.648-3.525L16.55 9.84 22 15.105Z" fill="#A4D5FF"></path><path d="m17.017 19.919.688-4.15-3.647-3.525-2.492 2.408 5.45 5.267Z" fill="#0067FF"></path><path d="m2 15.185 4.295.666 3.648-3.525L7.45 9.918 2 15.185Z" fill="#A4D5FF"></path><path d="m6.983 20-.688-4.15 3.648-3.524 2.491 2.407L6.984 20Z" fill="#0067FF"></path><path d="M17.86 9.594c0 3.09-2.592 5.594-5.79 5.594-3.197 0-5.789-2.505-5.789-5.594C6.281 6.504 8.873 4 12.071 4c3.197 0 5.79 2.504 5.79 5.594Z" fill="#FFDF36"></path><path d="M16.097 9.594c0 2.15-1.803 3.891-4.028 3.891-2.224 0-4.027-1.742-4.027-3.891 0-2.15 1.803-3.891 4.027-3.891 2.225 0 4.028 1.742 4.028 3.89Z" fill="#FFCC29"></path><path d="M11.866 11.539V7.98v.39h-.805v-.723h1.737v3.89h-.932Z" fill="#FFFFFF"></path></svg>