<svg xmlns:xlink="http://www.w3.org/1999/xlink" xmlns="http://www.w3.org/2000/svg" viewBox="0 0 24 24" width="40" height="40" color="var(--simentic-on-surface, #121416)"><path d="m22 15.8-4.295.707-3.648-3.745 2.492-2.558L22 15.8Z" fill="#A4D5FF"></path><path d="m17.017 20.914.688-4.41-3.647-3.744-2.492 2.558 5.45 5.596Z" fill="#0067FF"></path><path d="m2 15.884 4.295.707 3.648-3.745-2.492-2.558L2 15.884Z" fill="#A4D5FF"></path><path d="m6.983 21-.688-4.409 3.648-3.745 2.491 2.558L6.984 21Z" fill="#0067FF"></path><path d="M17.86 9.943c0 3.283-2.592 5.944-5.79 5.944-3.197 0-5.789-2.661-5.789-5.944C6.281 6.661 8.873 4 12.071 4c3.197 0 5.79 2.66 5.79 5.943Z" fill="#EFCB70"></path><path d="M16.097 9.944c0 2.283-1.803 4.134-4.028 4.134-2.224 0-4.027-1.851-4.027-4.134 0-2.284 1.803-4.135 4.027-4.135 2.225 0 4.028 1.851 4.028 4.135Z" fill="#D0AF7E"></path><path d="M11.954 12.759c-.35 0-.699-.046-1.045-.138a2.75 2.75 0 0 1-.88-.405l.455-.897c.192.14.416.25.67.332a2.5 2.5 0 0 0 .771.123c.294 0 .524-.057.692-.173a.55.55 0 0 0 .253-.478.538.538 0 0 0-.224-.456c-.149-.11-.389-.166-.72-.166h-.534v-.774l1.406-1.6-.354.403-2.162.017v-.94h3.532v.76l-1.168 1.29-.821-.032h.338c.62 0 1.089.14 1.406.42.317.28.476.64.476 1.078 0 .285-.075.553-.224.803a1.623 1.623 0 0 1-.684.601c-.308.154-.702.232-1.183.232Z" fill="#FFFFFF"></path></svg>