<svg xmlns:xlink="http://www.w3.org/1999/xlink" xmlns="http://www.w3.org/2000/svg" viewBox="0 0 24 24" width="40" height="40" color="var(--simentic-on-surface, #121416)"><path d="m22 15.105-4.295.666-3.648-3.525L16.55 9.84 22 15.105Z" fill="#A4D5FF"></path><path d="m17.017 19.919.688-4.15-3.647-3.525-2.492 2.408 5.45 5.267Z" fill="#0067FF"></path><path d="m2 15.185 4.295.666 3.648-3.525L7.45 9.918 2 15.185Z" fill="#A4D5FF"></path><path d="m6.983 20-.688-4.15 3.648-3.524 2.491 2.407L6.984 20Z" fill="#0067FF"></path><path d="M17.86 9.594c0 3.09-2.592 5.594-5.79 5.594-3.197 0-5.789-2.505-5.789-5.594C6.281 6.504 8.873 4 12.071 4c3.197 0 5.79 2.504 5.79 5.594Z" fill="#C9D9DD"></path><path d="M16.097 9.594c0 2.15-1.803 3.891-4.028 3.891-2.224 0-4.027-1.742-4.027-3.891 0-2.15 1.803-3.891 4.027-3.891 2.225 0 4.028 1.742 4.028 3.89Z" fill="#ACC3C8"></path><path d="M10.241 11.758v-.671l1.786-1.63c.14-.123.245-.234.31-.332a.928.928 0 0 0 .173-.492.475.475 0 0 0-.192-.409c-.124-.098-.307-.147-.55-.147-.193 0-.374.037-.541.11a1.046 1.046 0 0 0-.417.338l-.78-.486a1.81 1.81 0 0 1 .74-.607 2.56 2.56 0 0 1 1.098-.224c.344 0 .644.056.9.167.26.106.46.257.601.453.146.196.219.43.219.703 0 .145-.02.29-.06.435-.035.14-.11.29-.225.447-.11.157-.273.334-.49.53l-1.48 1.348.414-.377h1.993v.844h-3.5Z" fill="#FFFFFF"></path></svg>