<svg xmlns:xlink="http://www.w3.org/1999/xlink" xmlns="http://www.w3.org/2000/svg" viewBox="0 0 24 24" width="40" height="40" color="var(--simentic-on-surface, #121416)"><path d="M12.233 21.5a1.62 1.62 0 0 1-.233-.015 1.598 1.598 0 0 1-.233.015c-4.374 0-9.112-1.863-8.747-6.333.364-4.47 6.196-7.824 6.196-7.824l.12-1.095-1.53-2.187a.557.557 0 0 1-.06-.533c.15-.35.595-.8 1.921-.346.667.339 1-.682 2.333-.682 1.334 0 1.666 1.02 2.332.682 1.327-.455 1.772-.004 1.925.346a.568.568 0 0 1-.062.533l-1.53 2.187.12 1.095s5.83 3.353 6.195 7.824c.365 4.47-4.373 6.333-8.747 6.333Z" fill="#FFCD00"></path><path d="M14.496 15.804c0 .916-.637 1.687-1.84 1.922v.548c0 .342-.292.618-.652.618-.361 0-.653-.276-.653-.618v-.507a4.533 4.533 0 0 1-1.523-.495c-.32-.172-.416-.57-.197-.85l.015-.022a.632.632 0 0 1 .812-.153c.292.168.583.29.89.358a.87.87 0 0 0 .102.018c.142.026.284.038.43.038.295 0 .528-.053.7-.142.025-.011.047-.026.069-.037a.676.676 0 0 0 .324-.589c0-.223-.128-.395-.324-.54-.284-.205-.715-.35-1.145-.507a2.336 2.336 0 0 1-.164-.06c-.852-.316-1.756-.808-1.756-1.817 0-.928.66-1.643 1.753-1.856v-.544c0-.342.291-.618.652-.618a.68.68 0 0 1 .463.179c.12.112.19.268.19.436v.518c.411.067.78.197 1.104.36a.56.56 0 0 1 .2.858.622.622 0 0 1-.492.235.684.684 0 0 1-.302-.075 2.724 2.724 0 0 0-.51-.209 1.963 1.963 0 0 0-.536-.078c-.35 0-.605.078-.773.209a.624.624 0 0 0-.24.503c0 .182.09.327.244.447.266.208.714.35 1.188.514.04.015.08.03.12.04.89.321 1.84.753 1.84 1.905l.011.01Z" fill="#FFF6D8"></path><path d="m11.348 16.605.105.022a.836.836 0 0 1-.102-.019l-.003-.003Zm1.308-.123c-.022.015-.044.026-.07.04a.419.419 0 0 0 .07-.04Z" fill="#FFF6D8"></path><path d="M15.462 6.721a.72.72 0 0 1-.583.715 16.566 16.566 0 0 1-5.747.004.723.723 0 0 1-.594-.715c0-.444.386-.786.812-.716a16.434 16.434 0 0 0 5.289.004.711.711 0 0 1 .823.712V6.72Z" fill="#99452E"></path></svg>