<svg xmlns:xlink="http://www.w3.org/1999/xlink" xmlns="http://www.w3.org/2000/svg" viewBox="0 0 24 24" width="16" height="16" color="#5C5D5F"><path fill-rule="evenodd" clip-rule="evenodd" d="M4.035 9.619v7.47h-.098c-.518 0-.937.401-.937.895s.42.895.937.895h4.12C8.406 20.652 10.042 22 11.998 22c1.956 0 3.595-1.339 3.944-3.121h4.12c.518 0 .937-.4.937-.895 0-.494-.42-.895-.937-.895h-.083V9.62c0-4.204-3.565-7.612-7.966-7.619H12c-4.4.007-7.966 3.415-7.966 7.619Zm7.973-5.83c-3.37.003-6.1 2.612-6.1 5.83v7.47h12.198V9.62c0-3.218-2.73-5.827-6.099-5.83Zm1.997 15.09h-4.01c.304.775 1.09 1.332 2.004 1.332.918 0 1.704-.553 2.006-1.332Z" fill="#5C5D5F"></path></svg>