<svg xmlns:xlink="http://www.w3.org/1999/xlink" xmlns="http://www.w3.org/2000/svg" viewBox="0 0 24 24" width="24" height="24" color="#DCE2E8"><path fill-rule="evenodd" clip-rule="evenodd" d="M12 21a9 9 0 1 0 0-18 9 9 0 0 0 0 18Zm-.31-6.396c-.5 0-.92-.408-.848-.903.137-.949.543-1.705 1.49-2.257.658-.406 1.169-.9 1.161-1.64.008-.826-.673-1.358-1.517-1.358-.492 0-.974.195-1.27.596-.31.418-.7.866-1.221.866-.552 0-1.015-.467-.836-.989.46-1.332 1.78-2.008 3.343-2.008 2.09 0 3.521 1.107 3.53 2.864-.009 1.204-.636 1.986-1.642 2.555-.619.361-.992.803-1.166 1.38-.144.478-.524.894-1.024.894Zm.054 3.263c-.666 0-1.215-.517-1.207-1.152-.008-.62.541-1.13 1.207-1.136.642.007 1.192.516 1.192 1.136 0 .635-.55 1.152-1.192 1.152Z" fill="#DCE2E8"></path></svg>