<svg xmlns:xlink="http://www.w3.org/1999/xlink" xmlns="http://www.w3.org/2000/svg" viewBox="0 0 24 24" width="24" height="24" color="var(--simentic-on-surface, #121416)"><path fill-rule="evenodd" clip-rule="evenodd" d="M6.163 2h1.715c.13 0 .235.11.235.244v1.479h1.299c.894 0 1.619.756 1.619 1.689V18.6c0 .933-.725 1.69-1.619 1.69h-1.3v1.466a.24.24 0 0 1-.234.244H6.163a.24.24 0 0 1-.234-.244v-1.467H4.62C3.725 20.29 3 19.533 3 18.6V5.412c0-.933.725-1.69 1.619-1.69h1.31V2.245A.24.24 0 0 1 6.163 2Z" fill="#DE4743"></path><path fill-rule="evenodd" clip-rule="evenodd" d="M16.124 3.677h1.715c.13 0 .234.11.234.245v2.333h1.201c.953 0 1.726.806 1.726 1.8v7.89c0 .993-.773 1.8-1.726 1.8h-1.201v2.332a.24.24 0 0 1-.234.245h-1.715a.24.24 0 0 1-.234-.245v-2.333h-1.196c-.953 0-1.725-.806-1.725-1.8V8.055c0-.994.772-1.8 1.725-1.8h1.195V3.922a.24.24 0 0 1 .235-.245Z" fill="#0067FF"></path></svg>