<svg xmlns:xlink="http://www.w3.org/1999/xlink" xmlns="http://www.w3.org/2000/svg" viewBox="0 0 24 24" width="32" height="32" color="var(--simentic-on-surface, #121416)"><g clip-path="url(#icon/coupon__a)"><path d="M3 4.5a1 1 0 0 0-1 1V10a2 2 0 1 1 0 4v4.5a1 1 0 0 0 1 1h18a1 1 0 0 0 1-1V14a2 2 0 1 1 0-4V5.5a1 1 0 0 0-1-1H3Z" fill="#0067FF"></path><path d="M16.596 10.665c-.708-1.058-2.178-1.504-3.437-.858a2.979 2.979 0 0 0-.624.432l-.004.003-.347.332 1.297 1.238.048-.046c.01.01.02.02.03.027l-.03-.027.334-.319a.806.806 0 0 1 .953-.083c.27.166.408.469.343.773a.724.724 0 0 1-.51.564c-.315.103-.594.027-.83-.197-.784-.751-1.565-1.505-2.353-2.253a2.694 2.694 0 0 0-3.043-.481c-.812.388-1.601 1.37-1.388 2.63.192 1.136 1.301 2.078 2.504 2.088.714.006 1.3-.244 1.809-.657a3.443 3.443 0 0 0 .264-.234l.203-.194-.51-.487a93.785 93.785 0 0 1-.37-.355l-.111-.106-.023-.02-.268-.257-.254.243-.142.114a.8.8 0 0 1-1.141-.08.717.717 0 0 1 .073-1.01c.326-.297.785-.276 1.145.065.78.742 1.552 1.49 2.332 2.232.505.48 1.12.725 1.83.753.332.029.639-.07.94-.177 1.538-.54 2.162-2.335 1.28-3.653Z" fill="#FFFFFF"></path></g><defs><clipPath id="icon/coupon__a"><path fill="#fff" d="M0 0h24v24H0z"></path></clipPath></defs></svg>