<svg xmlns:xlink="http://www.w3.org/1999/xlink" xmlns="http://www.w3.org/2000/svg" width="22" height="12" viewBox="0 0 22 12" fill="none">
<g clip-path="url(#clip0_82_21052)">
<path d="M21.1123 2.68135C19.5539 0.245766 16.3196 -0.780099 13.5501 0.706661C13.0757 0.962114 12.6135 1.2919 12.1769 1.70144L12.1701 1.70685L11.8444 2.03258L11.4065 2.4705L12.1323 3.19631L12.5527 3.61666L13.7137 4.77633L14.2584 5.32103L14.3638 5.2156C14.3868 5.23723 14.4084 5.25885 14.43 5.27777L14.3651 5.21425L15.0991 4.48033C15.1518 4.43438 15.2058 4.38977 15.2626 4.34923C15.8451 3.93023 16.5993 3.90725 17.1954 4.2884C17.7915 4.67091 18.0942 5.36833 17.9509 6.06846C17.8198 6.70642 17.4441 7.15515 16.8291 7.366C16.1344 7.60388 15.5208 7.42817 15.0045 6.91186C13.2771 5.18451 11.5592 3.44906 9.82512 1.72847C7.9937 -0.0853764 5.37836 -0.501669 3.132 0.620159C1.34383 1.51357 -0.391626 3.77209 0.0787312 6.67398C0.500431 9.28932 2.94007 11.4559 5.5865 11.4803C7.15706 11.4938 8.44784 10.918 9.56561 9.96783C9.71159 9.84618 9.85621 9.71508 9.99677 9.57857C10.0481 9.52991 10.0981 9.4799 10.1468 9.42854L10.5942 8.98251L10.3968 8.78518L9.47371 7.86203C9.20068 7.59036 8.92901 7.31869 8.65599 7.04432C8.56543 6.95376 8.48569 6.87266 8.4127 6.80103C8.39648 6.78481 8.37891 6.76859 8.36269 6.75237L7.77339 6.16307L7.21518 6.72128C7.12327 6.79562 7.02055 6.88483 6.90296 6.98485C6.83808 7.04026 6.7705 7.09297 6.70022 7.14163C5.94738 7.65389 4.95801 7.50656 4.39169 6.80238C3.82402 6.09684 3.8916 5.10207 4.55253 4.47492C5.26888 3.79237 6.27987 3.84102 7.07056 4.6263C8.78709 6.33202 10.4861 8.05667 12.2026 9.76239C13.3136 10.868 14.6679 11.4316 16.2263 11.4951C16.9589 11.5614 17.6333 11.3329 18.297 11.0883C21.68 9.84348 23.0532 5.71299 21.1123 2.68V2.68135Z" fill="url(#paint0_linear_82_21052)"/>
</g>
<defs>
<linearGradient id="paint0_linear_82_21052" x1="0.0003384" y1="5.75354" x2="22.0003" y2="5.75354" gradientUnits="userSpaceOnUse">
<stop stop-color="#132FFF"/>
<stop offset="1" stop-color="#4B0AFF"/>
</linearGradient>
<clipPath id="clip0_82_21052">
<rect width="22" height="11.5075" fill="white"/>
</clipPath>
</defs>
</svg>