<svg xmlns:xlink="http://www.w3.org/1999/xlink" xmlns="http://www.w3.org/2000/svg" viewBox="0 0 24 24" width="24" height="24" color="#A0A9B9"><path d="M8.084 6.34c0 1.294-1.138 2.342-2.542 2.342S3 7.634 3 6.34C3 5.048 4.138 4 5.542 4s2.542 1.048 2.542 2.34Zm6.458 0c0 1.294-1.138 2.342-2.542 2.342S9.458 7.634 9.458 6.34C9.458 5.048 10.596 4 12 4s2.542 1.048 2.542 2.34Zm0 5.656c0 1.293-1.138 2.34-2.542 2.34s-2.542-1.047-2.542-2.34S10.596 9.655 12 9.655s2.542 1.048 2.542 2.34Zm0 5.664c0 1.292-1.138 2.34-2.542 2.34s-2.542-1.048-2.542-2.34c0-1.294 1.138-2.342 2.542-2.342s2.542 1.048 2.542 2.341ZM21 6.34c0 1.294-1.138 2.342-2.542 2.342s-2.542-1.048-2.542-2.341C15.916 5.048 17.054 4 18.458 4S21 5.048 21 6.34Z" fill="#A0A9B9"></path></svg>