<svg xmlns:xlink="http://www.w3.org/1999/xlink" xmlns="http://www.w3.org/2000/svg" viewBox="0 0 24 24" width="16" height="16" color="#5C5D5F"><path fill-rule="evenodd" clip-rule="evenodd" d="M2 4.977c0-.54.425-.977.95-.977h1.152c.524 0 .95.437.95.977s-.426.977-.95.977H2.949c-.524 0-.949-.437-.949-.977Zm4.297 0c0-.54.425-.977.95-.977H21.05c.525 0 .95.437.95.977s-.425.977-.95.977H7.247a.963.963 0 0 1-.95-.977ZM2 12c0-.54.425-.977.95-.977h1.152c.524 0 .95.437.95.977s-.426.977-.95.977H2.949C2.425 12.977 2 12.54 2 12Zm4.297 0c0-.54.425-.977.95-.977H21.05c.525 0 .95.437.95.977s-.425.977-.95.977H7.247a.963.963 0 0 1-.95-.977ZM2 19.023c0-.54.425-.977.95-.977h1.152c.524 0 .95.437.95.977s-.426.977-.95.977H2.949C2.425 20 2 19.562 2 19.023Zm4.297 0c0-.54.425-.977.95-.977H21.05c.525 0 .95.437.95.977s-.425.977-.95.977H7.247c-.525 0-.95-.438-.95-.977Z" fill="#5C5D5F"></path></svg>