<svg xmlns="http://www.w3.org/2000/svg" xmlns:xlink="http://www.w3.org/1999/xlink" viewBox="0 0 325 325" width="325" height="325" preserveAspectRatio="xMidYMid meet" style="width: 100%; height: 100%; transform: translate3d(0px, 0px, 0px); content-visibility: visible;"><defs><clipPath id="__lottie_element_344"><rect width="325" height="325" x="0" y="0"></rect></clipPath><clipPath id="__lottie_element_346"><path d="M0,0 L325,0 L325,325 L0,325z"></path></clipPath><clipPath id="__lottie_element_347"><path fill="#ffffff" clip-rule="nonzero" d=" M311,0 C311,0 311,215 311,215 C311,215 0,215 0,215 C0,215 0,0 0,0 C0,0 311,0 311,0" fill-opacity="1"></path></clipPath><linearGradient id="__lottie_element_352" spreadMethod="pad" gradientUnits="userSpaceOnUse" x1="114.64600372314453" y1="0" x2="114.64600372314453" y2="120.51200103759766"><stop offset="0%" stop-color="rgb(139,158,241)"></stop><stop offset="100%" stop-color="rgb(138,172,236)"></stop></linearGradient><clipPath id="__lottie_element_354"><path d="M0,0 L325,0 L325,325 L0,325z"></path></clipPath><clipPath id="__lottie_element_358"><path d="M0,0 L325,0 L325,325 L0,325z"></path></clipPath><clipPath id="__lottie_element_374"><path d="M0,0 L325,0 L325,325 L0,325z"></path></clipPath><clipPath id="__lottie_element_378"><path d="M0,0 L325,0 L325,325 L0,325z"></path></clipPath><clipPath id="__lottie_element_394"><path d="M0,0 L325,0 L325,325 L0,325z"></path></clipPath><clipPath id="__lottie_element_398"><path d="M0,0 L325,0 L325,325 L0,325z"></path></clipPath><clipPath id="__lottie_element_414"><path d="M0,0 L325,0 L325,325 L0,325z"></path></clipPath><linearGradient id="__lottie_element_352" spreadMethod="pad" gradientUnits="userSpaceOnUse" x1="114.64600372314453" y1="0" x2="114.64600372314453" y2="120.51200103759766"><stop offset="0%" stop-color="rgb(139,158,241)"></stop><stop offset="100%" stop-color="rgb(138,172,236)"></stop></linearGradient></defs><g clip-path="url(#__lottie_element_344)"><g clip-path="url(#__lottie_element_346)" transform="matrix(1,0,0,1,7,55)" opacity="1" style="display: block;"><g clip-path="url(#__lottie_element_347)"><g transform="matrix(1,0,0,1,0,0)" opacity="1" style="display: block;"><path fill="#FFFFFF" fill-opacity="0" d=" M311,0 C311,0 311,215 311,215 C311,215 0,215 0,215 C0,215 0,0 0,0 C0,0 311,0 311,0z"></path></g><g transform="matrix(1,0,0,1,112.38999938964844,87.57000732421875)" opacity="1" style="display: block;"><path fill="#5C77F5" fill-opacity="1" d=" M80.41000366210938,0 C80.41000366210938,0 0,0 0,0 C0,0 0,46.11000061035156 0,46.11000061035156 C0,46.11000061035156 80.41000366210938,46.11000061035156 80.41000366210938,46.11000061035156 C80.41000366210938,46.11000061035156 80.41000366210938,0 80.41000366210938,0 C80.41000366210938,0 80.41000366210938,0 80.41000366210938,0z"></path></g><g transform="matrix(1,0,0,1,39.55000305175781,20.070003509521484)" opacity="1" style="display: block;"><path fill="#5C77F5" fill-opacity="1" d=" M229.27999877929688,88.87999725341797 C229.27999877929688,88.87999725341797 0,88.87999725341797 0,88.87999725341797 C0,88.87999725341797 35.29999923706055,9.180000305175781 35.29999923706055,9.180000305175781 C37.77000045776367,3.609999895095825 43.31999969482422,0 49.45000076293945,0 C49.45000076293945,0 179.80999755859375,0 179.80999755859375,0 C185.94000244140625,0 191.5,3.609999895095825 193.97000122070312,9.180000305175781 C193.97000122070312,9.180000305175781 229.25999450683594,88.87999725341797 229.25999450683594,88.87999725341797 C229.25999450683594,88.87999725341797 229.27999877929688,88.87999725341797 229.27999877929688,88.87999725341797 C229.27999877929688,88.87999725341797 229.27999877929688,88.87999725341797 229.27999877929688,88.87999725341797z"></path></g><g clip-path="url(#__lottie_element_414)" transform="matrix(1,0,0,1,0,48.779998779296875)" opacity="1" style="display: block;"><g style="display: block;" transform="matrix(1,0,0,1,278.66998291015625,19.96000099182129)" opacity="0.33955010636270905"><path fill="#FFDE52" fill-opacity="1" d=" M15.350000381469727,36.97999954223633 C13.479999542236328,24.850000381469727 10.859999656677246,21.90999984741211 0.6399999856948853,19.6299991607666 C-0.20999999344348907,19.440000534057617 -0.20999999344348907,18.229999542236328 0.6399999856948853,18.040000915527344 C10.859999656677246,15.760000228881836 13.479999542236328,12.8100004196167 15.350000381469727,0.6899999976158142 C15.489999771118164,-0.23000000417232513 16.829999923706055,-0.23000000417232513 16.969999313354492,0.6899999976158142 C18.84000015258789,12.819999694824219 21.459999084472656,15.760000228881836 31.68000030517578,18.040000915527344 C32.529998779296875,18.229999542236328 32.529998779296875,19.440000534057617 31.68000030517578,19.6299991607666 C21.459999084472656,21.90999984741211 18.84000015258789,24.860000610351562 16.969999313354492,36.97999954223633 C16.829999923706055,37.900001525878906 15.489999771118164,37.900001525878906 15.350000381469727,36.97999954223633 C15.350000381469727,36.97999954223633 15.350000381469727,36.97999954223633 15.350000381469727,36.97999954223633z"></path></g><g style="display: block;" transform="matrix(1,0,0,1,11.070000648498535,0)" opacity="0.33955010636270905"><path fill="#FFE780" fill-opacity="1" d=" M12.15999984741211,29.290000915527344 C10.680000305175781,19.690000534057617 8.600000381469727,17.360000610351562 0.5099999904632568,15.550000190734863 C-0.17000000178813934,15.399999618530273 -0.17000000178813934,14.4399995803833 0.5099999904632568,14.289999961853027 C8.600000381469727,12.489999771118164 10.670000076293945,10.149999618530273 12.15999984741211,0.550000011920929 C12.270000457763672,-0.18000000715255737 13.34000015258789,-0.18000000715255737 13.449999809265137,0.550000011920929 C14.930000305175781,10.149999618530273 17.010000228881836,12.479999542236328 25.100000381469727,14.289999961853027 C25.780000686645508,14.4399995803833 25.780000686645508,15.399999618530273 25.100000381469727,15.550000190734863 C17.010000228881836,17.350000381469727 14.9399995803833,19.690000534057617 13.449999809265137,29.290000915527344 C13.34000015258789,30.020000457763672 12.270000457763672,30.020000457763672 12.15999984741211,29.290000915527344 C12.15999984741211,29.290000915527344 12.15999984741211,29.290000915527344 12.15999984741211,29.290000915527344z"></path></g><g style="display: block;" transform="matrix(1,0,0,1,0,33.73999786376953)" opacity="0.33955010636270905"><path fill="#FFEB97" fill-opacity="1" d=" M7.070000171661377,17.030000686645508 C6.199999809265137,11.449999809265137 5,10.09000015258789 0.28999999165534973,9.039999961853027 C-0.10000000149011612,8.949999809265137 -0.10000000149011612,8.399999618530273 0.28999999165534973,8.3100004196167 C4.989999771118164,7.260000228881836 6.199999809265137,5.900000095367432 7.070000171661377,0.3199999928474426 C7.139999866485596,-0.10999999940395355 7.760000228881836,-0.10999999940395355 7.820000171661377,0.3199999928474426 C8.6899995803833,5.900000095367432 9.880000114440918,7.260000228881836 14.59000015258789,8.3100004196167 C14.979999542236328,8.399999618530273 14.979999542236328,8.949999809265137 14.59000015258789,9.039999961853027 C9.890000343322754,10.09000015258789 8.6899995803833,11.449999809265137 7.820000171661377,17.030000686645508 C7.75,17.459999084472656 7.130000114440918,17.459999084472656 7.070000171661377,17.030000686645508 C7.070000171661377,17.030000686645508 7.070000171661377,17.030000686645508 7.070000171661377,17.030000686645508z"></path></g></g><g clip-path="url(#__lottie_element_394)" transform="matrix(1,0,0,1,99.27000427246094,0)" opacity="1" style="display: block;"><g style="display: block;" transform="matrix(1,0,0,1,0,0)" opacity="1"><path fill="#D3D8DE" fill-opacity="1" d=" M100.58000183105469,0 C100.58000183105469,0 9.270000457763672,0 9.270000457763672,0 C4.150000095367432,0 0,4.130000114440918 0,9.210000038146973 C0,9.210000038146973 0,66.33000183105469 0,66.33000183105469 C0,71.41000366210938 4.150000095367432,75.52999877929688 9.270000457763672,75.52999877929688 C9.270000457763672,75.52999877929688 100.58000183105469,75.52999877929688 100.58000183105469,75.52999877929688 C105.69999694824219,75.52999877929688 109.83999633789062,71.41000366210938 109.83999633789062,66.33000183105469 C109.83999633789062,66.33000183105469 109.83999633789062,9.210000038146973 109.83999633789062,9.210000038146973 C109.83999633789062,4.130000114440918 105.69999694824219,0 100.58000183105469,0 C100.58000183105469,0 100.58000183105469,0 100.58000183105469,0z"></path></g><g clip-path="url(#__lottie_element_398)" transform="matrix(1,0,0,1,34.87999725341797,7.619999885559082)" opacity="1" style="display: block;"><g transform="matrix(1,0,0,1,0,0)" opacity="1" style="display: block;"><path fill="#7394F2" fill-opacity="0.5" d=" M6.960000038146973,15.510000228881836 C4.78000020980835,15.510000228881836 3.069999933242798,14.899999618530273 1.840000033378601,13.699999809265137 C0.6100000143051147,12.5 0,10.770000457763672 0,8.539999961853027 C0,8.539999961853027 0,1.7400000095367432 0,1.7400000095367432 C0,0.7799999713897705 0.7799999713897705,0 1.75,0 C1.75,0 1.7999999523162842,0 1.7999999523162842,0 C2.7699999809265137,0 3.549999952316284,0.7799999713897705 3.549999952316284,1.7400000095367432 C3.549999952316284,1.7400000095367432 3.549999952316284,8.40999984741211 3.549999952316284,8.40999984741211 C3.549999952316284,9.859999656677246 3.8499999046325684,10.899999618530273 4.449999809265137,11.539999961853027 C5.050000190734863,12.180000305175781 5.889999866485596,12.5 6.96999979019165,12.5 C8.050000190734863,12.5 8.899999618530273,12.180000305175781 9.489999771118164,11.539999961853027 C10.09000015258789,10.899999618530273 10.399999618530273,9.859999656677246 10.399999618530273,8.40999984741211 C10.399999618530273,8.40999984741211 10.399999618530273,1.7400000095367432 10.399999618530273,1.7400000095367432 C10.399999618530273,0.7799999713897705 11.180000305175781,0 12.149999618530273,0 C13.119999885559082,0 13.899999618530273,0.7799999713897705 13.899999618530273,1.7400000095367432 C13.899999618530273,1.7400000095367432 13.899999618530273,8.539999961853027 13.899999618530273,8.539999961853027 C13.899999618530273,10.770000457763672 13.289999961853027,12.5 12.0600004196167,13.699999809265137 C10.829999923706055,14.899999618530273 9.119999885559082,15.510000228881836 6.940000057220459,15.510000228881836 C6.940000057220459,15.510000228881836 6.960000038146973,15.510000228881836 6.960000038146973,15.510000228881836 C6.960000038146973,15.510000228881836 6.960000038146973,15.510000228881836 6.960000038146973,15.510000228881836z"></path></g><g transform="matrix(1,0,0,1,17.420000076293945,0.010000228881835938)" opacity="1" style="display: block;"><path fill="#7394F2" fill-opacity="0.5" d=" M0,13.510000228881836 C0,13.510000228881836 0,1.7400000095367432 0,1.7400000095367432 C0,0.7799999713897705 0.7799999713897705,0 1.75,0 C1.75,0 1.7999999523162842,0 1.7999999523162842,0 C2.7699999809265137,0 3.549999952316284,0.7799999713897705 3.549999952316284,1.7400000095367432 C3.549999952316284,1.7400000095367432 3.549999952316284,13.510000228881836 3.549999952316284,13.510000228881836 C3.549999952316284,14.470000267028809 2.7699999809265137,15.25 1.7999999523162842,15.25 C1.7999999523162842,15.25 1.75,15.25 1.75,15.25 C0.7799999713897705,15.25 0,14.470000267028809 0,13.510000228881836 C0,13.510000228881836 0,13.510000228881836 0,13.510000228881836z"></path></g><g transform="matrix(1,0,0,1,24.619998931884766,0)" opacity="1" style="display: block;"><path fill="#7394F2" fill-opacity="0.5" d=" M3.549999952316284,12.359999656677246 C3.549999952316284,12.359999656677246 6.800000190734863,12.359999656677246 6.800000190734863,12.359999656677246 C7.820000171661377,12.359999656677246 8.710000038146973,12.15999984741211 9.460000038146973,11.779999732971191 C10.210000038146973,11.399999618530273 10.8100004196167,10.850000381469727 11.220000267028809,10.140000343322754 C11.630000114440918,9.430000305175781 11.84000015258789,8.600000381469727 11.84000015258789,7.639999866485596 C11.84000015258789,6.679999828338623 11.630000114440918,5.820000171661377 11.220000267028809,5.119999885559082 C10.8100004196167,4.420000076293945 10.210000038146973,3.869999885559082 9.460000038146973,3.4800000190734863 C8.710000038146973,3.0999999046325684 7.820000171661377,2.9100000858306885 6.800000190734863,2.9100000858306885 C6.800000190734863,2.9100000858306885 3.549999952316284,2.9100000858306885 3.549999952316284,2.9100000858306885 C3.549999952316284,2.9100000858306885 3.549999952316284,12.369999885559082 3.549999952316284,12.369999885559082 C3.549999952316284,12.369999885559082 3.549999952316284,12.359999656677246 3.549999952316284,12.359999656677246 C3.549999952316284,12.359999656677246 3.549999952316284,12.359999656677246 3.549999952316284,12.359999656677246z M0,13.369999885559082 C0,13.369999885559082 0,1.8899999856948853 0,1.8899999856948853 C0,0.8399999737739563 0.8500000238418579,0 1.899999976158142,0 C1.899999976158142,0 6.980000019073486,0 6.980000019073486,0 C8.649999618530273,0 10.119999885559082,0.3100000023841858 11.390000343322754,0.949999988079071 C12.65999984741211,1.590000033378601 13.65999984741211,2.4600000381469727 14.380000114440918,3.5899999141693115 C15.09000015258789,4.730000019073486 15.449999809265137,6.079999923706055 15.449999809265137,7.630000114440918 C15.449999809265137,9.180000305175781 15.09000015258789,10.510000228881836 14.380000114440918,11.649999618530273 C13.670000076293945,12.789999961853027 12.670000076293945,13.670000076293945 11.390000343322754,14.3100004196167 C10.109999656677246,14.949999809265137 8.640000343322754,15.260000228881836 6.980000019073486,15.260000228881836 C6.980000019073486,15.260000228881836 1.899999976158142,15.260000228881836 1.899999976158142,15.260000228881836 C0.8500000238418579,15.260000228881836 0,14.420000076293945 0,13.369999885559082 C0,13.369999885559082 0,13.369999885559082 0,13.369999885559082z"></path></g></g></g><g clip-path="url(#__lottie_element_374)" transform="matrix(1,0,0,1,85.41999053955078,24.599998474121094)" opacity="1" style="display: block;"><g style="display: block;" transform="matrix(1,0,0,1,0,0)" opacity="1"><path fill="#E4E6E8" fill-opacity="1" d=" M125.91000366210938,0 C125.91000366210938,0 11.609999656677246,0 11.609999656677246,0 C5.199999809265137,0 0,5.159999847412109 0,11.529999732971191 C0,11.529999732971191 0,83.02999877929688 0,83.02999877929688 C0,89.4000015258789 5.199999809265137,94.55999755859375 11.609999656677246,94.55999755859375 C11.609999656677246,94.55999755859375 125.91000366210938,94.55999755859375 125.91000366210938,94.55999755859375 C132.32000732421875,94.55999755859375 137.52000427246094,89.4000015258789 137.52000427246094,83.02999877929688 C137.52000427246094,83.02999877929688 137.52000427246094,11.529999732971191 137.52000427246094,11.529999732971191 C137.52000427246094,5.159999847412109 132.32000732421875,0 125.91000366210938,0 C125.91000366210938,0 125.91000366210938,0 125.91000366210938,0z"></path></g><g clip-path="url(#__lottie_element_378)" transform="matrix(1,0,0,1,43.679996490478516,11.489998817443848)" opacity="1" style="display: block;"><g transform="matrix(1,0,0,1,0,0.010000228881835938)" opacity="1" style="display: block;"><path fill="#587EF5" fill-opacity="0.8" d=" M8.710000038146973,19.420000076293945 C5.980000019073486,19.420000076293945 3.8499999046325684,18.670000076293945 2.309999942779541,17.15999984741211 C0.7799999713897705,15.649999618530273 0,13.489999771118164 0,10.6899995803833 C0,10.6899995803833 0,2.180000066757202 0,2.180000066757202 C0,0.9800000190734863 0.9900000095367432,0 2.200000047683716,0 C2.200000047683716,0 2.25,0 2.25,0 C3.4600000381469727,0 4.449999809265137,0.9800000190734863 4.449999809265137,2.180000066757202 C4.449999809265137,2.180000066757202 4.449999809265137,10.529999732971191 4.449999809265137,10.529999732971191 C4.449999809265137,12.350000381469727 4.820000171661377,13.65999984741211 5.570000171661377,14.460000038146973 C6.320000171661377,15.260000228881836 7.380000114440918,15.65999984741211 8.729999542236328,15.65999984741211 C10.079999923706055,15.65999984741211 11.140000343322754,15.260000228881836 11.890000343322754,14.460000038146973 C12.640000343322754,13.65999984741211 13.020000457763672,12.350000381469727 13.020000457763672,10.529999732971191 C13.020000457763672,10.529999732971191 13.020000457763672,2.180000066757202 13.020000457763672,2.180000066757202 C13.020000457763672,0.9800000190734863 14.010000228881836,0 15.220000267028809,0 C16.43000030517578,0 17.420000076293945,0.9800000190734863 17.420000076293945,2.180000066757202 C17.420000076293945,2.180000066757202 17.420000076293945,10.6899995803833 17.420000076293945,10.6899995803833 C17.420000076293945,13.489999771118164 16.649999618530273,15.649999618530273 15.109999656677246,17.15999984741211 C13.579999923706055,18.670000076293945 11.430000305175781,19.420000076293945 8.699999809265137,19.420000076293945 C8.699999809265137,19.420000076293945 8.710000038146973,19.420000076293945 8.710000038146973,19.420000076293945 C8.710000038146973,19.420000076293945 8.710000038146973,19.420000076293945 8.710000038146973,19.420000076293945z"></path></g><g transform="matrix(1,0,0,1,21.82000160217285,0.010000228881835938)" opacity="1" style="display: block;"><path fill="#587EF5" fill-opacity="0.8" d=" M0,16.920000076293945 C0,16.920000076293945 0,2.180000066757202 0,2.180000066757202 C0,0.9800000190734863 0.9900000095367432,0 2.200000047683716,0 C2.200000047683716,0 2.25,0 2.25,0 C3.4600000381469727,0 4.449999809265137,0.9800000190734863 4.449999809265137,2.180000066757202 C4.449999809265137,2.180000066757202 4.449999809265137,16.920000076293945 4.449999809265137,16.920000076293945 C4.449999809265137,18.1200008392334 3.4600000381469727,19.100000381469727 2.25,19.100000381469727 C2.25,19.100000381469727 2.200000047683716,19.100000381469727 2.200000047683716,19.100000381469727 C0.9900000095367432,19.100000381469727 0,18.1200008392334 0,16.920000076293945 C0,16.920000076293945 0,16.920000076293945 0,16.920000076293945z"></path></g><g transform="matrix(1,0,0,1,30.829999923706055,0)" opacity="1" style="display: block;"><path fill="#587EF5" fill-opacity="0.8" d=" M4.449999809265137,15.470000267028809 C4.449999809265137,15.470000267028809 8.520000457763672,15.470000267028809 8.520000457763672,15.470000267028809 C9.800000190734863,15.470000267028809 10.90999984741211,15.239999771118164 11.859999656677246,14.75 C12.800000190734863,14.270000457763672 13.529999732971191,13.59000015258789 14.050000190734863,12.6899995803833 C14.569999694824219,11.800000190734863 14.84000015258789,10.75 14.84000015258789,9.550000190734863 C14.84000015258789,8.350000381469727 14.569999694824219,7.28000020980835 14.050000190734863,6.400000095367432 C13.529999732971191,5.519999980926514 12.800000190734863,4.840000152587891 11.859999656677246,4.349999904632568 C10.920000076293945,3.869999885559082 9.8100004196167,3.619999885559082 8.520000457763672,3.619999885559082 C8.520000457763672,3.619999885559082 4.449999809265137,3.619999885559082 4.449999809265137,3.619999885559082 C4.449999809265137,3.619999885559082 4.449999809265137,15.470000267028809 4.449999809265137,15.470000267028809 C4.449999809265137,15.470000267028809 4.449999809265137,15.470000267028809 4.449999809265137,15.470000267028809 C4.449999809265137,15.470000267028809 4.449999809265137,15.470000267028809 4.449999809265137,15.470000267028809z M0,16.739999771118164 C0,16.739999771118164 0,2.369999885559082 0,2.369999885559082 C0,1.059999942779541 1.059999942779541,0 2.380000114440918,0 C2.380000114440918,0 8.739999771118164,0 8.739999771118164,0 C10.829999923706055,0 12.670000076293945,0.4000000059604645 14.260000228881836,1.190000057220459 C15.850000381469727,1.9800000190734863 17.100000381469727,3.0899999141693115 18,4.510000228881836 C18.899999618530273,5.929999828338623 19.350000381469727,7.610000133514404 19.350000381469727,9.5600004196167 C19.350000381469727,11.510000228881836 18.899999618530273,13.15999984741211 18,14.59000015258789 C17.100000381469727,16.020000457763672 15.850000381469727,17.139999389648438 14.260000228881836,17.920000076293945 C12.670000076293945,18.700000762939453 10.829999923706055,19.110000610351562 8.739999771118164,19.110000610351562 C8.739999771118164,19.110000610351562 2.380000114440918,19.110000610351562 2.380000114440918,19.110000610351562 C1.059999942779541,19.110000610351562 0,18.049999237060547 0,16.739999771118164 C0,16.739999771118164 0,16.739999771118164 0,16.739999771118164z"></path></g></g></g><g clip-path="url(#__lottie_element_354)" transform="matrix(1,0,0,1,67.47000122070312,59.53000259399414)" opacity="1" style="display: block;"><g style="display: block;" transform="matrix(1,0,0,1,0,0)" opacity="1"><path fill="#EFEFF5" fill-opacity="1" d=" M158.7899932861328,0 C158.7899932861328,0 14.640000343322754,0 14.640000343322754,0 C6.550000190734863,0 0,6.510000228881836 0,14.539999961853027 C0,14.539999961853027 0,104.72000122070312 0,104.72000122070312 C0,112.75 6.550000190734863,119.26000213623047 14.640000343322754,119.26000213623047 C14.640000343322754,119.26000213623047 158.7899932861328,119.26000213623047 158.7899932861328,119.26000213623047 C166.8800048828125,119.26000213623047 173.44000244140625,112.75 173.44000244140625,104.72000122070312 C173.44000244140625,104.72000122070312 173.44000244140625,14.539999961853027 173.44000244140625,14.539999961853027 C173.44000244140625,6.510000228881836 166.8800048828125,0 158.7899932861328,0 C158.7899932861328,0 158.7899932861328,0 158.7899932861328,0z"></path></g><g clip-path="url(#__lottie_element_358)" transform="matrix(1,0,0,1,55.08000183105469,14.5)" opacity="1" style="display: block;"><g transform="matrix(1,0,0,1,0,0)" opacity="1" style="display: block;"><path fill="#587EF5" fill-opacity="1" d=" M10.979999542236328,24.489999771118164 C7.539999961853027,24.489999771118164 4.849999904632568,23.549999237060547 2.9100000858306885,21.639999389648438 C0.9700000286102295,19.729999542236328 0,17.020000457763672 0,13.489999771118164 C0,13.489999771118164 0,2.75 0,2.75 C0,1.2300000190734863 1.2400000095367432,0 2.7699999809265137,0 C2.7699999809265137,0 2.8399999141693115,0 2.8399999141693115,0 C4.369999885559082,0 5.599999904632568,1.2300000190734863 5.599999904632568,2.75 C5.599999904632568,2.75 5.599999904632568,13.279999732971191 5.599999904632568,13.279999732971191 C5.599999904632568,15.569999694824219 6.079999923706055,17.219999313354492 7.03000020980835,18.229999542236328 C7.980000019073486,19.239999771118164 9.289999961853027,19.75 11.010000228881836,19.75 C12.729999542236328,19.75 14.050000190734863,19.25 15,18.229999542236328 C15.949999809265137,17.219999313354492 16.420000076293945,15.569999694824219 16.420000076293945,13.279999732971191 C16.420000076293945,13.279999732971191 16.420000076293945,2.75 16.420000076293945,2.75 C16.420000076293945,1.2300000190734863 17.65999984741211,0 19.190000534057617,0 C20.719999313354492,0 21.959999084472656,1.2300000190734863 21.959999084472656,2.75 C21.959999084472656,2.75 21.959999084472656,13.489999771118164 21.959999084472656,13.489999771118164 C21.959999084472656,17.020000457763672 20.989999771118164,19.739999771118164 19.049999237060547,21.639999389648438 C17.110000610351562,23.549999237060547 14.420000076293945,24.489999771118164 10.979999542236328,24.489999771118164 C10.979999542236328,24.489999771118164 10.979999542236328,24.489999771118164 10.979999542236328,24.489999771118164 C10.979999542236328,24.489999771118164 10.979999542236328,24.489999771118164 10.979999542236328,24.489999771118164z"></path></g><g transform="matrix(1,0,0,1,27.510000228881836,0)" opacity="1" style="display: block;"><path fill="#587EF5" fill-opacity="1" d=" M0,21.329999923706055 C0,21.329999923706055 0,2.75 0,2.75 C0,1.2300000190734863 1.2400000095367432,0 2.7699999809265137,0 C2.7699999809265137,0 2.8399999141693115,0 2.8399999141693115,0 C4.369999885559082,0 5.599999904632568,1.2300000190734863 5.599999904632568,2.75 C5.599999904632568,2.75 5.599999904632568,21.329999923706055 5.599999904632568,21.329999923706055 C5.599999904632568,22.850000381469727 4.369999885559082,24.079999923706055 2.8399999141693115,24.079999923706055 C2.8399999141693115,24.079999923706055 2.7699999809265137,24.079999923706055 2.7699999809265137,24.079999923706055 C1.2400000095367432,24.079999923706055 0,22.850000381469727 0,21.329999923706055 C0,21.329999923706055 0,21.329999923706055 0,21.329999923706055z"></path></g><g transform="matrix(1,0,0,1,38.880001068115234,0.010000228881835938)" opacity="1" style="display: block;"><path fill="#587EF5" fill-opacity="1" d=" M5.610000133514404,19.510000228881836 C5.610000133514404,19.510000228881836 10.739999771118164,19.510000228881836 10.739999771118164,19.510000228881836 C12.359999656677246,19.510000228881836 13.760000228881836,19.209999084472656 14.960000038146973,18.600000381469727 C16.149999618530273,17.989999771118164 17.06999969482422,17.1299991607666 17.719999313354492,16 C18.3700008392334,14.880000114440918 18.709999084472656,13.5600004196167 18.709999084472656,12.039999961853027 C18.709999084472656,10.520000457763672 18.3700008392334,9.170000076293945 17.719999313354492,8.0600004196167 C17.059999465942383,6.949999809265137 16.149999618530273,6.090000152587891 14.960000038146973,5.480000019073486 C13.770000457763672,4.869999885559082 12.359999656677246,4.570000171661377 10.739999771118164,4.570000171661377 C10.739999771118164,4.570000171661377 5.610000133514404,4.570000171661377 5.610000133514404,4.570000171661377 C5.610000133514404,4.570000171661377 5.610000133514404,19.510000228881836 5.610000133514404,19.510000228881836 C5.610000133514404,19.510000228881836 5.610000133514404,19.510000228881836 5.610000133514404,19.510000228881836z M0,21.100000381469727 C0,21.100000381469727 0,2.9800000190734863 0,2.9800000190734863 C0,1.340000033378601 1.340000033378601,0 3,0 C3,0 11.010000228881836,0 11.010000228881836,0 C13.640000343322754,0 15.970000267028809,0.5 17.979999542236328,1.4900000095367432 C19.989999771118164,2.4800000190734863 21.559999465942383,3.890000104904175 22.690000534057617,5.679999828338623 C23.81999969482422,7.46999979019165 24.389999389648438,9.579999923706055 24.389999389648438,12.039999961853027 C24.389999389648438,14.5 23.829999923706055,16.600000381469727 22.690000534057617,18.399999618530273 C21.559999465942383,20.200000762939453 19.989999771118164,21.59000015258789 17.979999542236328,22.59000015258789 C15.970000267028809,23.59000015258789 13.640000343322754,24.09000015258789 11.010000228881836,24.09000015258789 C11.010000228881836,24.09000015258789 3,24.09000015258789 3,24.09000015258789 C1.340000033378601,24.09000015258789 0,22.75 0,21.110000610351562 C0,21.110000610351562 0,21.100000381469727 0,21.100000381469727 C0,21.100000381469727 0,21.100000381469727 0,21.100000381469727z"></path></g></g></g><g transform="matrix(1,0,0,1,39.540000915527344,94.48001098632812)" opacity="1" style="display: block;"><path fill="url(&quot;#__lottie_element_352&quot;)" fill-opacity="1" d=" M229.27999877929688,12.270000457763672 C229.27999877929688,12.270000457763672 229.27999877929688,108.23999786376953 229.27999877929688,108.23999786376953 C229.27999877929688,115.0199966430664 223.75,120.51000213623047 216.92999267578125,120.51000213623047 C216.92999267578125,120.51000213623047 12.350000381469727,120.51000213623047 12.350000381469727,120.51000213623047 C5.53000020980835,120.51000213623047 0,115.0199966430664 0,108.23999786376953 C0,108.23999786376953 0,12.270000457763672 0,12.270000457763672 C0,5.489999771118164 5.53000020980835,0 12.350000381469727,0 C12.350000381469727,0 74.97000122070312,0 74.97000122070312,0 C80.37999725341797,0 85.1500015258789,3.490000009536743 86.76000213623047,8.619999885559082 C90.44999694824219,20.3799991607666 101.51000213623047,28.920000076293945 114.55999755859375,28.920000076293945 C127.62000274658203,28.920000076293945 138.6699981689453,20.389999389648438 142.36000061035156,8.630000114440918 C143.97000122070312,3.5 148.74000549316406,0 154.14999389648438,0 C154.14999389648438,0 216.94000244140625,0 216.94000244140625,0 C223.75999450683594,0 229.2899932861328,5.489999771118164 229.2899932861328,12.270000457763672 C229.2899932861328,12.270000457763672 229.27999877929688,12.270000457763672 229.27999877929688,12.270000457763672 C229.27999877929688,12.270000457763672 229.27999877929688,12.270000457763672 229.27999877929688,12.270000457763672z"></path></g></g></g></g></svg>