<svg xmlns="http://www.w3.org/2000/svg" xmlns:xlink="http://www.w3.org/1999/xlink" viewBox="0 0 325 325" width="325" height="325" preserveAspectRatio="xMidYMid meet" style="width: 100%; height: 100%; transform: translate3d(0px, 0px, 0px); content-visibility: visible;"><defs><clipPath id="__lottie_element_2"><rect width="325" height="325" x="0" y="0"></rect></clipPath><clipPath id="__lottie_element_13"><path d="M0,0 L325,0 L325,325 L0,325z"></path></clipPath></defs><g clip-path="url(#__lottie_element_2)"><g clip-path="url(#__lottie_element_13)" transform="matrix(0.9659258127212524,-0.258819043636322,0.258819043636322,0.9659258127212524,27.466064453125,124.5837631225586)" opacity="1" style="display: block;"><g transform="matrix(1,0,0,1,0,0)" opacity="1" style="display: block;"><path fill="#FFC238" fill-opacity="1" d=" M216.16000366210938,72.16000366210938 C216.16000366210938,83.31999969482422 223.5399932861328,92.7300033569336 233.64999389648438,95.73999786376953 C237.75999450683594,96.95999908447266 240.55999755859375,100.77999877929688 240.55999755859375,105.08999633789062 C240.55999755859375,105.08999633789062 240.55999755859375,134.22000122070312 240.55999755859375,134.22000122070312 C240.55999755859375,139.61000061035156 236.22999572753906,143.97000122070312 230.88999938964844,143.97000122070312 C230.88999938964844,143.97000122070312 9.680000305175781,143.97000122070312 9.680000305175781,143.97000122070312 C4.329999923706055,143.97000122070312 0,139.60000610351562 0,134.22000122070312 C0,134.22000122070312 0,104.91000366210938 0,104.91000366210938 C0,100.5999984741211 2.799999952316284,96.79000091552734 6.909999847412109,95.56999969482422 C17.020000457763672,92.56999969482422 24.40999984741211,83.1500015258789 24.40999984741211,71.98999786376953 C24.40999984741211,60.83000183105469 17.020000457763672,51.40999984741211 6.909999847412109,48.400001525878906 C2.799999952316284,47.18000030517578 0,43.369998931884766 0,39.060001373291016 C0,39.060001373291016 0,9.75 0,9.75 C0,4.360000133514404 4.340000152587891,0 9.680000305175781,0 C9.680000305175781,0 230.88999938964844,0 230.88999938964844,0 C236.24000549316406,0 240.55999755859375,4.369999885559082 240.55999755859375,9.75 C240.55999755859375,9.75 240.55999755859375,39.2400016784668 240.55999755859375,39.2400016784668 C240.55999755859375,43.54999923706055 237.75999450683594,47.36000061035156 233.64999389648438,48.58000183105469 C223.5399932861328,51.58000183105469 216.16000366210938,61 216.16000366210938,72.16000366210938 C216.16000366210938,72.16000366210938 216.16000366210938,72.16000366210938 216.16000366210938,72.16000366210938z"></path></g><g transform="matrix(1,0,0,1,37.779998779296875,46.89999771118164)" opacity="1" style="display: block;"><path fill="#FFFFFF" fill-opacity="1" d=" M14.199999809265137,10.289999961853027 C14.199999809265137,10.289999961853027 3.7799999713897705,15.960000038146973 3.7799999713897705,15.960000038146973 C3.7799999713897705,15.960000038146973 0,8.859999656677246 0,8.859999656677246 C0,8.859999656677246 15.5600004196167,0 15.5600004196167,0 C15.5600004196167,0 23.579999923706055,0 23.579999923706055,0 C23.579999923706055,0 23.579999923706055,44.83000183105469 23.579999923706055,44.83000183105469 C23.579999923706055,44.83000183105469 14.199999809265137,44.83000183105469 14.199999809265137,44.83000183105469 C14.199999809265137,44.83000183105469 14.199999809265137,10.300000190734863 14.199999809265137,10.300000190734863 C14.199999809265137,10.300000190734863 14.199999809265137,10.289999961853027 14.199999809265137,10.289999961853027 C14.199999809265137,10.289999961853027 14.199999809265137,10.289999961853027 14.199999809265137,10.289999961853027z"></path></g><g transform="matrix(1,0,0,1,69.68000030517578,46.1099967956543)" opacity="1" style="display: block;"><path fill="#FFFFFF" fill-opacity="1" d=" M25.299999237060547,10.90999984741211 C24.239999771118164,9.069999694824219 22.100000381469727,8.140000343322754 18.889999389648438,8.140000343322754 C18.889999389648438,8.140000343322754 17.520000457763672,8.140000343322754 17.520000457763672,8.140000343322754 C14.3100004196167,8.140000343322754 12.180000305175781,9.100000381469727 11.140000343322754,11.010000228881836 C10.100000381469727,12.920000076293945 9.579999923706055,16.459999084472656 9.579999923706055,21.6299991607666 C9.579999923706055,21.6299991607666 9.579999923706055,25.68000030517578 9.579999923706055,25.68000030517578 C9.579999923706055,30.40999984741211 10.100000381469727,33.70000076293945 11.140000343322754,35.54999923706055 C12.180000305175781,37.38999938964844 14.3100004196167,38.31999969482422 17.520000457763672,38.31999969482422 C17.520000457763672,38.31999969482422 18.889999389648438,38.31999969482422 18.889999389648438,38.31999969482422 C22.100000381469727,38.31999969482422 24.239999771118164,37.349998474121094 25.299999237060547,35.38999938964844 C26.360000610351562,33.43000030517578 26.899999618530273,29.90999984741211 26.899999618530273,24.829999923706055 C26.899999618530273,24.829999923706055 26.899999618530273,20.790000915527344 26.899999618530273,20.790000915527344 C26.899999618530273,16.059999465942383 26.3700008392334,12.760000228881836 25.299999237060547,10.90999984741211 C25.299999237060547,10.90999984741211 25.299999237060547,10.90999984741211 25.299999237060547,10.90999984741211z M8.890000343322754,45.119998931884766 C6.480000019073486,44.279998779296875 4.630000114440918,42.84000015258789 3.319999933242798,40.81999969482422 C2.009999990463257,38.79999923706055 1.1299999952316284,36.439998626708984 0.6800000071525574,33.75 C0.23000000417232513,31.049999237060547 0,27.540000915527344 0,23.200000762939453 C0,18.860000610351562 0.23000000417232513,15.34000015258789 0.6800000071525574,12.670000076293945 C1.1299999952316284,10 2.009999990463257,7.650000095367432 3.319999933242798,5.610000133514404 C4.630000114440918,3.569999933242798 6.480000019073486,2.119999885559082 8.890000343322754,1.2699999809265137 C11.300000190734863,0.4300000071525574 14.420000076293945,0 18.239999771118164,0 C21.329999923706055,0 23.93000030517578,0.30000001192092896 26.059999465942383,0.9100000262260437 C28.190000534057617,1.5199999809265137 29.93000030517578,2.380000114440918 31.299999237060547,3.490000009536743 C32.66999816894531,4.599999904632568 33.720001220703125,6.139999866485596 34.459999084472656,8.119999885559082 C35.20000076293945,10.100000381469727 35.709999084472656,12.239999771118164 35.9900016784668,14.569999694824219 C36.27000045776367,16.899999618530273 36.40999984741211,19.770000457763672 36.40999984741211,23.200000762939453 C36.40999984741211,27.540000915527344 36.18000030517578,31.059999465942383 35.72999954223633,33.72999954223633 C35.279998779296875,36.400001525878906 34.40999984741211,38.75 33.130001068115234,40.790000915527344 C31.850000381469727,42.83000183105469 30,44.279998779296875 27.59000015258789,45.130001068115234 C25.18000030517578,45.970001220703125 22.059999465942383,46.400001525878906 18.239999771118164,46.400001525878906 C14.420000076293945,46.400001525878906 11.3100004196167,45.970001220703125 8.899999618530273,45.130001068115234 C8.899999618530273,45.130001068115234 8.890000343322754,45.119998931884766 8.890000343322754,45.119998931884766 C8.890000343322754,45.119998931884766 8.890000343322754,45.119998931884766 8.890000343322754,45.119998931884766z"></path></g><g transform="matrix(1,0,0,1,119.47999572753906,66.93000030517578)" opacity="1" style="display: block;"><path fill="#FFFFFF" fill-opacity="1" d=" M0,0.009999999776482582 C0,0.009999999776482582 5.349999904632568,0.009999999776482582 5.349999904632568,0.009999999776482582 C5.349999904632568,0.009999999776482582 5.349999904632568,13.850000381469727 5.349999904632568,13.850000381469727 C5.349999904632568,15.850000381469727 5.519999980926514,17.34000015258789 5.869999885559082,18.34000015258789 C6.21999979019165,19.34000015258789 6.710000038146973,19.989999771118164 7.349999904632568,20.290000915527344 C7.989999771118164,20.59000015258789 8.920000076293945,20.75 10.149999618530273,20.75 C12.050000190734863,20.75 13.329999923706055,20.280000686645508 13.989999771118164,19.3700008392334 C14.649999618530273,18.459999084472656 14.989999771118164,16.610000610351562 14.989999771118164,13.84000015258789 C14.989999771118164,13.84000015258789 14.989999771118164,0 14.989999771118164,0 C14.989999771118164,0 20.329999923706055,0 20.329999923706055,0 C20.329999923706055,1.4900000095367432 20.329999923706055,3.7100000381469727 20.350000381469727,6.650000095367432 C20.360000610351562,9.59000015258789 20.3700008392334,11.789999961853027 20.3700008392334,13.260000228881836 C20.3700008392334,15.140000343322754 20.290000915527344,16.700000762939453 20.1200008392334,17.959999084472656 C19.950000762939453,19.209999084472656 19.649999618530273,20.34000015258789 19.219999313354492,21.31999969482422 C18.790000915527344,22.299999237060547 18.18000030517578,23.079999923706055 17.3799991607666,23.6200008392334 C16.579999923706055,24.15999984741211 15.619999885559082,24.559999465942383 14.460000038146973,24.84000015258789 C13.300000190734863,25.1200008392334 11.869999885559082,25.260000228881836 10.15999984741211,25.260000228881836 C8.039999961853027,25.260000228881836 6.340000152587891,25.06999969482422 5.03000020980835,24.670000076293945 C3.7300000190734863,24.270000457763672 2.690000057220459,23.579999923706055 1.940000057220459,22.579999923706055 C1.1799999475479126,21.579999923706055 0.6700000166893005,20.360000610351562 0.4000000059604645,18.920000076293945 C0.12999999523162842,17.489999771118164 0.009999999776482582,15.609999656677246 0.009999999776482582,13.270000457763672 C0.009999999776482582,13.270000457763672 0.009999999776482582,0.009999999776482582 0.009999999776482582,0.009999999776482582 C0.009999999776482582,0.009999999776482582 0,0.009999999776482582 0,0.009999999776482582 C0,0.009999999776482582 0,0.009999999776482582 0,0.009999999776482582z"></path></g><g transform="matrix(1,0,0,1,143.55999755859375,66.47000122070312)" opacity="1" style="display: block;"><path fill="#FFFFFF" fill-opacity="1" d=" M1.2699999809265137,20.670000076293945 C4.039999961853027,21.030000686645508 6.21999979019165,21.209999084472656 7.800000190734863,21.209999084472656 C9.729999542236328,21.209999084472656 11.100000381469727,21.010000228881836 11.899999618530273,20.6299991607666 C12.699999809265137,20.25 13.109999656677246,19.5 13.109999656677246,18.389999389648438 C13.109999656677246,17.479999542236328 12.84000015258789,16.790000915527344 12.3100004196167,16.329999923706055 C11.779999732971191,15.869999885559082 10.819999694824219,15.479999542236328 9.420000076293945,15.140000343322754 C9.420000076293945,15.140000343322754 6.320000171661377,14.380000114440918 6.320000171661377,14.380000114440918 C4.369999885559082,13.920000076293945 2.8299999237060547,13.15999984741211 1.7000000476837158,12.100000381469727 C0.5699999928474426,11.039999961853027 0,9.449999809265137 0,7.329999923706055 C0,4.630000114440918 0.800000011920929,2.740000009536743 2.4000000953674316,1.6399999856948853 C4,0.5400000214576721 6.449999809265137,0 9.75,0 C12.039999961853027,0 14.539999961853027,0.23999999463558197 17.260000228881836,0.7200000286102295 C17.260000228881836,0.7200000286102295 16.760000228881836,5.059999942779541 16.760000228881836,5.059999942779541 C14.380000114440918,4.699999809265137 12.430000305175781,4.510000228881836 10.9399995803833,4.510000228881836 C8.890000343322754,4.510000228881836 7.5,4.71999979019165 6.739999771118164,5.130000114440918 C5.980000019073486,5.539999961853027 5.599999904632568,6.289999961853027 5.599999904632568,7.400000095367432 C5.599999904632568,8.239999771118164 5.849999904632568,8.850000381469727 6.360000133514404,9.220000267028809 C6.860000133514404,9.59000015258789 7.75,9.930000305175781 9.029999732971191,10.220000267028809 C9.029999732971191,10.220000267028809 11.989999771118164,10.899999618530273 11.989999771118164,10.899999618530273 C14.229999542236328,11.430000305175781 15.899999618530273,12.279999732971191 17.010000228881836,13.449999809265137 C18.1200008392334,14.619999885559082 18.670000076293945,16.209999084472656 18.670000076293945,18.239999771118164 C18.670000076293945,20.84000015258789 17.8700008392334,22.729999542236328 16.290000915527344,23.90999984741211 C14.710000038146973,25.09000015258789 12.039999961853027,25.68000030517578 8.3100004196167,25.68000030517578 C6.170000076293945,25.68000030517578 3.6500000953674316,25.43000030517578 0.7300000190734863,24.920000076293945 C0.7300000190734863,24.920000076293945 1.2699999809265137,20.65999984741211 1.2699999809265137,20.65999984741211 C1.2699999809265137,20.65999984741211 1.2699999809265137,20.670000076293945 1.2699999809265137,20.670000076293945 C1.2699999809265137,20.670000076293945 1.2699999809265137,20.670000076293945 1.2699999809265137,20.670000076293945z"></path></g><g transform="matrix(1,0,0,1,165.80999755859375,66.94999694824219)" opacity="1" style="display: block;"><path fill="#FFFFFF" fill-opacity="1" d=" M5.210000038146973,4.21999979019165 C5.210000038146973,4.21999979019165 5.210000038146973,20.559999465942383 5.210000038146973,20.559999465942383 C6.849999904632568,20.780000686645508 8.210000038146973,20.889999389648438 9.319999694824219,20.889999389648438 C11.579999923706055,20.889999389648438 13.09000015258789,20.3700008392334 13.84000015258789,19.34000015258789 C14.59000015258789,18.309999465942383 14.960000038146973,16.459999084472656 14.960000038146973,13.8100004196167 C14.960000038146973,13.8100004196167 14.960000038146973,12.180000305175781 14.960000038146973,12.180000305175781 C14.960000038146973,9.050000190734863 14.600000381469727,6.940000057220459 13.880000114440918,5.860000133514404 C13.15999984741211,4.78000020980835 11.619999885559082,4.230000019073486 9.260000228881836,4.230000019073486 C9.260000228881836,4.230000019073486 5.210000038146973,4.230000019073486 5.210000038146973,4.230000019073486 C5.210000038146973,4.230000019073486 5.210000038146973,4.21999979019165 5.210000038146973,4.21999979019165 C5.210000038146973,4.21999979019165 5.210000038146973,4.21999979019165 5.210000038146973,4.21999979019165z M0.009999999776482582,24.420000076293945 C0.009999999776482582,24.420000076293945 0.009999999776482582,0 0.009999999776482582,0 C0.009999999776482582,0 9.539999961853027,0 9.539999961853027,0 C11.699999809265137,0 13.489999771118164,0.2199999988079071 14.869999885559082,0.6499999761581421 C16.25,1.0800000429153442 17.350000381469727,1.809999942779541 18.170000076293945,2.8399999141693115 C18.989999771118164,3.869999885559082 19.549999237060547,5.119999885559082 19.860000610351562,6.610000133514404 C20.170000076293945,8.100000381469727 20.329999923706055,10.020000457763672 20.329999923706055,12.359999656677246 C20.329999923706055,14.699999809265137 20.18000030517578,16.65999984741211 19.8799991607666,18.18000030517578 C19.579999923706055,19.700000762939453 19.030000686645508,20.989999771118164 18.219999313354492,22.09000015258789 C17.40999984741211,23.190000534057617 16.290000915527344,23.969999313354492 14.859999656677246,24.440000534057617 C13.430000305175781,24.90999984741211 11.600000381469727,25.149999618530273 9.390000343322754,25.149999618530273 C6.070000171661377,25.149999618530273 2.940000057220459,24.90999984741211 0,24.43000030517578 C0,24.43000030517578 0.009999999776482582,24.420000076293945 0.009999999776482582,24.420000076293945 C0.009999999776482582,24.420000076293945 0.009999999776482582,24.420000076293945 0.009999999776482582,24.420000076293945z"></path></g><g transform="matrix(1,0,0,1,187.77999877929688,66.94000244140625)" opacity="1" style="display: block;"><path fill="#FFFFFF" fill-opacity="1" d=" M7.039999961853027,24.790000915527344 C7.039999961853027,24.790000915527344 7.039999961853027,4.300000190734863 7.039999961853027,4.300000190734863 C7.039999961853027,4.300000190734863 0,4.300000190734863 0,4.300000190734863 C0,4.300000190734863 0,0 0,0 C0,0 19.610000610351562,0 19.610000610351562,0 C19.610000610351562,0 19.610000610351562,4.300000190734863 19.610000610351562,4.300000190734863 C19.610000610351562,4.300000190734863 12.279999732971191,4.300000190734863 12.279999732971191,4.300000190734863 C12.279999732971191,4.300000190734863 12.279999732971191,24.790000915527344 12.279999732971191,24.790000915527344 C12.279999732971191,24.790000915527344 7.039999961853027,24.790000915527344 7.039999961853027,24.790000915527344 C7.039999961853027,24.790000915527344 7.039999961853027,24.790000915527344 7.039999961853027,24.790000915527344z"></path></g><g transform="matrix(1,0,0,1,19.699996948242188,17.889999389648438)" opacity="1" style="display: block;"><path fill="#FFF9BF" fill-opacity="1" d=" M199.27000427246094,4.889999866485596 C199.27000427246094,4.889999866485596 2.440000057220459,4.889999866485596 2.440000057220459,4.889999866485596 C1.090000033378601,4.889999866485596 0,3.7899999618530273 0,2.440000057220459 C0,1.090000033378601 1.090000033378601,0 2.440000057220459,0 C2.440000057220459,0 199.27000427246094,0 199.27000427246094,0 C200.6199951171875,0 201.7100067138672,1.090000033378601 201.7100067138672,2.440000057220459 C201.7100067138672,3.7899999618530273 200.6199951171875,4.889999866485596 199.27000427246094,4.889999866485596 C199.27000427246094,4.889999866485596 199.27000427246094,4.889999866485596 199.27000427246094,4.889999866485596z"></path></g><g transform="matrix(1,0,0,1,19.699996948242188,121.23999786376953)" opacity="1" style="display: block;"><path fill="#FFF9BF" fill-opacity="1" d=" M199.27000427246094,4.889999866485596 C199.27000427246094,4.889999866485596 2.440000057220459,4.889999866485596 2.440000057220459,4.889999866485596 C1.090000033378601,4.889999866485596 0,3.7899999618530273 0,2.440000057220459 C0,1.090000033378601 1.090000033378601,0 2.440000057220459,0 C2.440000057220459,0 199.27000427246094,0 199.27000427246094,0 C200.6199951171875,0 201.7100067138672,1.090000033378601 201.7100067138672,2.440000057220459 C201.7100067138672,3.7899999618530273 200.6199951171875,4.889999866485596 199.27000427246094,4.889999866485596 C199.27000427246094,4.889999866485596 199.27000427246094,4.889999866485596 199.27000427246094,4.889999866485596z"></path></g></g><g transform="matrix(0.258819043636322,-0.9659258127212524,0.9659258127212524,0.258819043636322,259.5167236328125,260.8674621582031)" opacity="1" style="display: block;"><path fill="#FFE180" fill-opacity="1" d=" M33.849998474121094,27.170000076293945 C34.70000076293945,29.899999618530273 36.25,32.81999969482422 38.52000045776367,36.290000915527344 C39.47999954223633,37.7599983215332 37.75,39.47999954223633 36.290000915527344,38.52000045776367 C32.83000183105469,36.25 29.899999618530273,34.70000076293945 27.170000076293945,33.86000061035156 C25.84000015258789,36.38999938964844 24.8700008392334,39.54999923706055 24.020000457763672,43.599998474121094 C23.65999984741211,45.310001373291016 21.229999542236328,45.310001373291016 20.8700008392334,43.599998474121094 C20.020000457763672,39.54999923706055 19.049999237060547,36.38999938964844 17.719999313354492,33.86000061035156 C14.989999771118164,34.709999084472656 12.0600004196167,36.2599983215332 8.59000015258789,38.529998779296875 C7.119999885559082,39.4900016784668 5.400000095367432,37.77000045776367 6.360000133514404,36.29999923706055 C8.630000114440918,32.83000183105469 10.1899995803833,29.899999618530273 11.029999732971191,27.170000076293945 C8.510000228881836,25.84000015258789 5.329999923706055,24.8700008392334 1.2799999713897705,24.020000457763672 C-0.4300000071525574,23.65999984741211 -0.4300000071525574,21.229999542236328 1.2799999713897705,20.8700008392334 C5.329999923706055,20.020000457763672 8.5,19.049999237060547 11.029999732971191,17.719999313354492 C10.180000305175781,14.989999771118164 8.630000114440918,12.0600004196167 6.360000133514404,8.59000015258789 C5.400000095367432,7.119999885559082 7.130000114440918,5.400000095367432 8.59000015258789,6.360000133514404 C12.0600004196167,8.630000114440918 14.989999771118164,10.1899995803833 17.719999313354492,11.029999732971191 C19.049999237060547,8.5 20.020000457763672,5.329999923706055 20.8700008392334,1.2799999713897705 C21.229999542236328,-0.4300000071525574 23.65999984741211,-0.4300000071525574 24.020000457763672,1.2799999713897705 C24.8700008392334,5.329999923706055 25.84000015258789,8.5 27.170000076293945,11.029999732971191 C29.899999618530273,10.1899995803833 32.81999969482422,8.630000114440918 36.290000915527344,6.360000133514404 C37.7599983215332,5.400000095367432 39.47999954223633,7.119999885559082 38.52000045776367,8.59000015258789 C36.25,12.050000190734863 34.689998626708984,14.979999542236328 33.849998474121094,17.709999084472656 C36.369998931884766,19.040000915527344 39.54999923706055,20.010000228881836 43.599998474121094,20.860000610351562 C45.31999969482422,21.219999313354492 45.31999969482422,23.649999618530273 43.599998474121094,24.010000228881836 C39.54999923706055,24.860000610351562 36.369998931884766,25.829999923706055 33.849998474121094,27.15999984741211 C33.849998474121094,27.15999984741211 33.849998474121094,27.170000076293945 33.849998474121094,27.170000076293945 C33.849998474121094,27.170000076293945 33.849998474121094,27.170000076293945 33.849998474121094,27.170000076293945z"></path></g><g transform="matrix(-0.9659280776977539,-0.2588106095790863,0.2588106095790863,-0.9659280776977539,63.72148895263672,77.15770721435547)" opacity="1" style="display: block;"><path fill="#789AFE" fill-opacity="1" d=" M29.09000015258789,14.539999961853027 C29.09000015258789,16.350000381469727 24.520000457763672,17.8799991607666 18.329999923706055,18.329999923706055 C17.8799991607666,24.520000457763672 16.350000381469727,29.09000015258789 14.539999961853027,29.09000015258789 C12.729999542236328,29.09000015258789 11.199999809265137,24.520000457763672 10.75,18.329999923706055 C4.559999942779541,17.8799991607666 0,16.350000381469727 0,14.539999961853027 C0,12.729999542236328 4.559999942779541,11.199999809265137 10.75,10.75 C11.199999809265137,4.559999942779541 12.729999542236328,0 14.539999961853027,0 C16.350000381469727,0 17.8799991607666,4.559999942779541 18.329999923706055,10.75 C24.520000457763672,11.199999809265137 29.09000015258789,12.729999542236328 29.09000015258789,14.539999961853027 C29.09000015258789,14.539999961853027 29.09000015258789,14.539999961853027 29.09000015258789,14.539999961853027z"></path></g><g transform="matrix(1,0,0,1,17,96)" opacity="1" style="display: block;"><path fill="#B1AC8F" fill-opacity="1" d=" M3,6 C4.659999847412109,6 6,4.659999847412109 6,3 C6,1.340000033378601 4.659999847412109,0 3,0 C1.340000033378601,0 0,1.340000033378601 0,3 C0,4.659999847412109 1.340000033378601,6 3,6 C3,6 3,6 3,6z"></path></g></g></svg>