<svg xmlns:xlink="http://www.w3.org/1999/xlink" xmlns="http://www.w3.org/2000/svg" viewBox="0 0 24 24" width="32" height="32" color="var(--simentic-on-surface, #121416)"><path d="M21.572 6.844c-.233-.926-.91-1.652-1.767-1.894-1.556-.45-7.813-.45-7.813-.45s-6.249 0-7.805.45c-.864.242-1.541.968-1.767 1.894C2 8.513 2 12 2 12s0 3.487.42 5.156c.234.926.91 1.652 1.767 1.893C5.743 19.5 12 19.5 12 19.5s6.249 0 7.813-.45c.864-.25 1.541-.977 1.767-1.894C22 15.487 22 12 22 12s-.008-3.487-.428-5.156Z" fill="#EC2123"></path><path d="M9.99 15.211 15.188 12 9.99 8.787v6.424Z" fill="#FFFFFF"></path></svg>