<svg xmlns:xlink="http://www.w3.org/1999/xlink" xmlns="http://www.w3.org/2000/svg" viewBox="0 0 24 24" width="24" height="24" color="#A0A9B9"><path fill-rule="evenodd" clip-rule="evenodd" d="M19.805 4.95c.857.242 1.534.968 1.767 1.894C21.992 8.513 22 12 22 12s0 3.487-.42 5.156c-.226.917-.903 1.643-1.767 1.893C18.25 19.5 12 19.5 12 19.5s-6.257 0-7.813-.45c-.856-.242-1.533-.968-1.767-1.894C2 15.487 2 12 2 12s0-3.487.42-5.156c.226-.926.903-1.652 1.767-1.894 1.556-.45 7.805-.45 7.805-.45s6.257 0 7.813.45ZM15.191 12l-5.198 3.212V8.788L15.19 12Z" fill="#A0A9B9"></path></svg>